<?xml version="1.0" encoding="UTF-8" standalone="no"?>
<!DOCTYPE svg PUBLIC "-//W3C//DTD SVG 1.1//EN" "http://www.w3.org/Graphics/SVG/1.1/DTD/svg11.dtd">
<svg width="100%" height="100%" viewBox="0 0 986 928" version="1.1" xmlns="http://www.w3.org/2000/svg" xmlns:xlink="http://www.w3.org/1999/xlink" xml:space="preserve" xmlns:serif="http://www.serif.com/" style="fill-rule:evenodd;clip-rule:evenodd;stroke-linejoin:round;stroke-miterlimit:2;">
    <g transform="matrix(1,0,0,1,-47.2085,-76.2049)">
        <g transform="matrix(0.720365,0.693595,-0.693595,0.720365,523.504,-215.382)">
            <g transform="matrix(1.05876,0.142868,-0.142868,1.05876,46.1503,-108.882)">
                <path d="M358.79,776.337C343.958,764.966 330.19,752.206 317.699,738.219C357.174,745.161 395.026,737.769 395.026,737.769C401.541,733.788 385.801,753.898 358.79,776.337Z" style="fill-opacity:0;"/>
                <clipPath id="_clip1">
                    <path d="M358.79,776.337C343.958,764.966 330.19,752.206 317.699,738.219C357.174,745.161 395.026,737.769 395.026,737.769C401.541,733.788 385.801,753.898 358.79,776.337Z"/>
                </clipPath>
                <g clip-path="url(#_clip1)">
                    <g id="coiso" transform="matrix(1.09543,-0.201539,0.201539,1.09543,-191.703,35.4896)">
                        <path d="M634.501,302.247L540,716.283L445.499,302.247C507.7,288.05 572.3,288.05 634.501,302.247ZM275.214,384.252L540,716.283L157.374,532.02C185.056,474.537 225.333,424.031 275.214,384.252ZM115.317,716.283L540,716.283L157.374,900.546C129.692,843.064 115.317,780.083 115.317,716.283ZM275.214,1048.31L540,716.283L445.499,1130.32C383.298,1116.12 325.096,1088.09 275.214,1048.31ZM634.501,1130.32L540,716.283L804.786,1048.31C754.904,1088.09 696.702,1116.12 634.501,1130.32ZM922.626,900.546L540,716.283L964.683,716.283C964.683,780.083 950.308,843.064 922.626,900.546ZM922.626,532.02L540,716.283L804.786,384.252C854.667,424.031 894.944,474.537 922.626,532.02Z" style="fill:white;"/>
                    </g>
                </g>
            </g>
            <g transform="matrix(1.05876,0.142868,-0.142868,1.05876,46.1503,-108.882)">
                <path d="M736.598,762.996C700.734,737.864 651.758,699.899 579.132,640.441C579.132,640.441 603.618,602.42 627.984,583.005C650.014,565.45 693.845,585.394 693.845,585.394C693.845,585.394 580.511,488.602 548.613,462.266C560.068,473.813 578.423,504.913 580.747,532.31C583.199,561.201 538.808,607.386 538.808,607.386C472.122,551.614 383.915,471.8 369.249,447.044C363.726,469.659 352.699,499.22 336.167,535.726C319.991,571.783 303.612,602.574 287.03,628.097C314.82,632.614 360.342,658.48 423.596,705.696C488.193,754.357 542.299,797.154 585.915,834.088C643.924,824.953 695.513,799.468 736.598,762.996Z" style="fill-opacity:0;"/>
                <clipPath id="_clip2">
                    <path d="M736.598,762.996C700.734,737.864 651.758,699.899 579.132,640.441C579.132,640.441 603.618,602.42 627.984,583.005C650.014,565.45 693.845,585.394 693.845,585.394C693.845,585.394 580.511,488.602 548.613,462.266C560.068,473.813 578.423,504.913 580.747,532.31C583.199,561.201 538.808,607.386 538.808,607.386C472.122,551.614 383.915,471.8 369.249,447.044C363.726,469.659 352.699,499.22 336.167,535.726C319.991,571.783 303.612,602.574 287.03,628.097C314.82,632.614 360.342,658.48 423.596,705.696C488.193,754.357 542.299,797.154 585.915,834.088C643.924,824.953 695.513,799.468 736.598,762.996Z"/>
                </clipPath>
                <g clip-path="url(#_clip2)">
                    <g id="coiso1" serif:id="coiso" transform="matrix(1.09543,-0.201539,0.201539,1.09543,-191.703,35.4896)">
                        <path d="M634.501,302.247L540,716.283L445.499,302.247C507.7,288.05 572.3,288.05 634.501,302.247ZM275.214,384.252L540,716.283L157.374,532.02C185.056,474.537 225.333,424.031 275.214,384.252ZM115.317,716.283L540,716.283L157.374,900.546C129.692,843.064 115.317,780.083 115.317,716.283ZM275.214,1048.31L540,716.283L445.499,1130.32C383.298,1116.12 325.096,1088.09 275.214,1048.31ZM634.501,1130.32L540,716.283L804.786,1048.31C754.904,1088.09 696.702,1116.12 634.501,1130.32ZM922.626,900.546L540,716.283L964.683,716.283C964.683,780.083 950.308,843.064 922.626,900.546ZM922.626,532.02L540,716.283L804.786,384.252C854.667,424.031 894.944,474.537 922.626,532.02Z" style="fill:white;"/>
                    </g>
                </g>
            </g>
            <g transform="matrix(1.05876,0.142868,-0.142868,1.05876,46.1503,-108.882)">
                <path d="M243.081,560.935C232.291,406.011 343.756,267.086 499.832,246.025C509.465,244.725 519.054,243.903 528.574,243.541C426.469,347.295 302.188,389.467 246.999,549.056C245.601,553.098 244.296,557.057 243.081,560.935Z" style="fill-opacity:0;"/>
                <clipPath id="_clip3">
                    <path d="M243.081,560.935C232.291,406.011 343.756,267.086 499.832,246.025C509.465,244.725 519.054,243.903 528.574,243.541C426.469,347.295 302.188,389.467 246.999,549.056C245.601,553.098 244.296,557.057 243.081,560.935Z"/>
                </clipPath>
                <g clip-path="url(#_clip3)">
                    <g id="coiso2" serif:id="coiso" transform="matrix(1.09543,-0.201539,0.201539,1.09543,-191.703,35.4896)">
                        <path d="M634.501,302.247L540,716.283L445.499,302.247C507.7,288.05 572.3,288.05 634.501,302.247ZM275.214,384.252L540,716.283L157.374,532.02C185.056,474.537 225.333,424.031 275.214,384.252ZM115.317,716.283L540,716.283L157.374,900.546C129.692,843.064 115.317,780.083 115.317,716.283ZM275.214,1048.31L540,716.283L445.499,1130.32C383.298,1116.12 325.096,1088.09 275.214,1048.31ZM634.501,1130.32L540,716.283L804.786,1048.31C754.904,1088.09 696.702,1116.12 634.501,1130.32ZM922.626,900.546L540,716.283L964.683,716.283C964.683,780.083 950.308,843.064 922.626,900.546ZM922.626,532.02L540,716.283L804.786,384.252C854.667,424.031 894.944,474.537 922.626,532.02Z" style="fill:white;"/>
                    </g>
                </g>
            </g>
            <g transform="matrix(1.05876,0.142868,-0.142868,1.05876,46.1503,-108.882)">
                <path d="M291.388,704.064C300.037,708.399 309.461,711.167 318.74,713.02C351.641,719.589 384.192,714.348 389.493,713.409L389.495,713.409L390.76,712.891L391.198,712.847C341.823,677.093 306.094,656.484 283.026,652.734L263.02,649.482C270.627,668.82 280.172,687.081 291.388,704.064Z" style="fill-opacity:0;"/>
                <clipPath id="_clip4">
                    <path d="M291.388,704.064C300.037,708.399 309.461,711.167 318.74,713.02C351.641,719.589 384.192,714.348 389.493,713.409L389.495,713.409L390.76,712.891L391.198,712.847C341.823,677.093 306.094,656.484 283.026,652.734L263.02,649.482C270.627,668.82 280.172,687.081 291.388,704.064Z"/>
                </clipPath>
                <g clip-path="url(#_clip4)">
                    <g id="coiso3" serif:id="coiso" transform="matrix(1.09543,-0.201539,0.201539,1.09543,-191.703,35.4896)">
                        <path d="M634.501,302.247L540,716.283L445.499,302.247C507.7,288.05 572.3,288.05 634.501,302.247ZM275.214,384.252L540,716.283L157.374,532.02C185.056,474.537 225.333,424.031 275.214,384.252ZM115.317,716.283L540,716.283L157.374,900.546C129.692,843.064 115.317,780.083 115.317,716.283ZM275.214,1048.31L540,716.283L445.499,1130.32C383.298,1116.12 325.096,1088.09 275.214,1048.31ZM634.501,1130.32L540,716.283L804.786,1048.31C754.904,1088.09 696.702,1116.12 634.501,1130.32ZM922.626,900.546L540,716.283L964.683,716.283C964.683,780.083 950.308,843.064 922.626,900.546ZM922.626,532.02L540,716.283L804.786,384.252C854.667,424.031 894.944,474.537 922.626,532.02Z" style="fill:white;"/>
                    </g>
                </g>
            </g>
            <g transform="matrix(1.05876,0.142868,-0.142868,1.05876,46.1503,-108.882)">
                <path d="M562.313,244.177C699.153,254.585 815.004,359.378 834.087,500.798C846.618,593.663 814.728,682.36 754.772,745.43C722.376,722.979 678.358,689.058 612.887,635.775C621.103,624.889 632.31,611.473 643.539,602.526C644.737,601.571 646.502,602.034 648.237,602.016C651.688,601.98 681.467,606.776 685.055,607.488C701.625,610.775 758.596,608.597 758.596,608.597C758.596,608.597 548.137,435.681 516.194,409.307C516.194,409.307 557.237,513.931 555.876,534.42C555.4,541.592 550.961,549.883 545.898,557.956C542.699,563.056 539.215,567.933 535.89,572.277C474.814,520.373 403.512,455.908 390.723,434.321L345.001,441.122C339.748,462.632 329.153,490.708 313.43,525.429L313.412,525.469C297.812,560.24 282.07,589.915 266.099,614.499L256.098,629.892C255.671,628.532 255.253,627.166 254.844,625.796C256.224,606.837 261.253,584.209 270.589,557.213C307.967,449.127 379.451,398.301 452.125,342.007C489.629,312.956 527.522,282.664 562.313,244.177Z" style="fill-opacity:0;"/>
                <clipPath id="_clip5">
                    <path d="M562.313,244.177C699.153,254.585 815.004,359.378 834.087,500.798C846.618,593.663 814.728,682.36 754.772,745.43C722.376,722.979 678.358,689.058 612.887,635.775C621.103,624.889 632.31,611.473 643.539,602.526C644.737,601.571 646.502,602.034 648.237,602.016C651.688,601.98 681.467,606.776 685.055,607.488C701.625,610.775 758.596,608.597 758.596,608.597C758.596,608.597 548.137,435.681 516.194,409.307C516.194,409.307 557.237,513.931 555.876,534.42C555.4,541.592 550.961,549.883 545.898,557.956C542.699,563.056 539.215,567.933 535.89,572.277C474.814,520.373 403.512,455.908 390.723,434.321L345.001,441.122C339.748,462.632 329.153,490.708 313.43,525.429L313.412,525.469C297.812,560.24 282.07,589.915 266.099,614.499L256.098,629.892C255.671,628.532 255.253,627.166 254.844,625.796C256.224,606.837 261.253,584.209 270.589,557.213C307.967,449.127 379.451,398.301 452.125,342.007C489.629,312.956 527.522,282.664 562.313,244.177Z"/>
                </clipPath>
                <g clip-path="url(#_clip5)">
                    <g id="coiso4" serif:id="coiso" transform="matrix(1.09543,-0.201539,0.201539,1.09543,-191.703,35.4896)">
                        <path d="M634.501,302.247L540,716.283L445.499,302.247C507.7,288.05 572.3,288.05 634.501,302.247ZM275.214,384.252L540,716.283L157.374,532.02C185.056,474.537 225.333,424.031 275.214,384.252ZM115.317,716.283L540,716.283L157.374,900.546C129.692,843.064 115.317,780.083 115.317,716.283ZM275.214,1048.31L540,716.283L445.499,1130.32C383.298,1116.12 325.096,1088.09 275.214,1048.31ZM634.501,1130.32L540,716.283L804.786,1048.31C754.904,1088.09 696.702,1116.12 634.501,1130.32ZM922.626,900.546L540,716.283L964.683,716.283C964.683,780.083 950.308,843.064 922.626,900.546ZM922.626,532.02L540,716.283L804.786,384.252C854.667,424.031 894.944,474.537 922.626,532.02Z" style="fill:white;"/>
                    </g>
                </g>
            </g>
            <g transform="matrix(1.05876,0.142868,-0.142868,1.05876,46.1503,-108.882)">
                <path d="M551.482,837.501C489.043,840.067 429.53,822.848 379.69,790.989C400.474,772.915 414.532,756.635 417.574,751.36L420.565,744.259L421.401,735.919L421.244,735.199C471.375,773.157 514.805,807.238 551.482,837.501Z" style="fill-opacity:0;"/>
                <clipPath id="_clip6">
                    <path d="M551.482,837.501C489.043,840.067 429.53,822.848 379.69,790.989C400.474,772.915 414.532,756.635 417.574,751.36L420.565,744.259L421.401,735.919L421.244,735.199C471.375,773.157 514.805,807.238 551.482,837.501Z"/>
                </clipPath>
                <g clip-path="url(#_clip6)">
                    <g id="coiso5" serif:id="coiso" transform="matrix(1.09543,-0.201539,0.201539,1.09543,-191.703,35.4896)">
                        <path d="M634.501,302.247L540,716.283L445.499,302.247C507.7,288.05 572.3,288.05 634.501,302.247ZM275.214,384.252L540,716.283L157.374,532.02C185.056,474.537 225.333,424.031 275.214,384.252ZM115.317,716.283L540,716.283L157.374,900.546C129.692,843.064 115.317,780.083 115.317,716.283ZM275.214,1048.31L540,716.283L445.499,1130.32C383.298,1116.12 325.096,1088.09 275.214,1048.31ZM634.501,1130.32L540,716.283L804.786,1048.31C754.904,1088.09 696.702,1116.12 634.501,1130.32ZM922.626,900.546L540,716.283L964.683,716.283C964.683,780.083 950.308,843.064 922.626,900.546ZM922.626,532.02L540,716.283L804.786,384.252C854.667,424.031 894.944,474.537 922.626,532.02Z" style="fill:white;"/>
                    </g>
                </g>
            </g>
            <g transform="matrix(0.968452,0,0,0.968452,17.2415,17.5456)">
                <path d="M221.585,618.305L213.038,615.706C212.582,629.678 214.737,641.659 219.098,651.978C224.649,665.114 233.797,674.826 244.547,682.161C234.791,661.941 227.05,640.568 221.585,618.305Z" style="fill-opacity:0;"/>
                <path d="M221.585,618.305C227.05,640.568 234.791,661.941 244.547,682.161C233.797,674.826 224.649,665.114 219.098,651.978C214.737,641.659 212.582,629.678 213.038,615.706L221.585,618.305Z" style="fill:white;"/>
            </g>
            <g transform="matrix(0.968452,0,0,0.968452,17.2415,17.5456)">
                <path d="M477.836,87.278C435.421,164.413 365.547,258.707 251.785,345.955C180.014,400.998 123.775,446.353 85.999,488.091C84.069,505.129 83.077,522.45 83.077,540C83.077,642.135 116.66,736.488 173.377,812.609C219.921,817.429 271.421,793.738 307.573,771.118C293.035,756.499 279.866,740.517 268.273,723.383C208.63,704.396 149.67,653.526 212.85,518.559C223.909,347.596 366.263,212.159 540,212.159C550.724,212.159 561.328,212.674 571.789,213.683C608.887,184.933 644.691,150.153 677.368,104.121C634.004,90.45 587.856,83.077 540,83.077C518.917,83.077 498.165,84.508 477.836,87.278Z" style="fill-opacity:0;"/>
                <path d="M477.836,87.278C498.165,84.508 518.917,83.077 540,83.077C587.856,83.077 634.004,90.45 677.368,104.121C644.691,150.153 608.887,184.933 571.789,213.683C561.328,212.674 550.724,212.159 540,212.159C366.263,212.159 223.909,347.596 212.85,518.559C149.67,653.526 208.63,704.396 268.273,723.383C279.866,740.517 293.035,756.499 307.573,771.118C271.421,793.738 219.921,817.429 173.377,812.609C116.66,736.488 83.077,642.135 83.077,540C83.077,522.45 84.069,505.129 85.999,488.091C123.775,446.353 180.014,400.998 251.785,345.955C365.547,258.707 435.421,164.413 477.836,87.278ZM206.935,415.897C168.765,446.482 137.009,474.006 112.449,500.04C111.233,513.198 110.612,526.527 110.612,540C110.612,631.362 139.206,716.099 187.931,785.736C213.84,785.411 240.665,775.838 264.201,764.034C259.56,758.328 255.092,752.476 250.807,746.485C217.191,734.022 185.608,712.012 169.368,675.707C153.188,639.539 151.491,586.998 185.746,511.58C188.397,478.178 195.673,446.07 206.935,415.897ZM437.295,199.716C469.815,189.9 504.296,184.623 540,184.623C547.797,184.623 555.535,184.875 563.207,185.371C586.298,166.759 608.799,145.486 630.2,120.115C601.112,113.888 570.936,110.612 540,110.612C524.802,110.612 509.788,111.403 494.996,112.945C479.276,140.322 460.259,169.564 437.295,199.716Z" style="fill:white;"/>
            </g>
            <g transform="matrix(0.968452,0,0,0.968452,17.2415,17.5456)">
                <path d="M216.909,595.867C216.642,594.317 216.386,592.762 216.141,591.204C215.634,593.621 215.19,595.989 214.807,598.311L216.909,595.867Z" style="fill-opacity:0;"/>
                <path d="M215.18,596.147L216.637,596.184L214.807,598.311C214.926,597.594 215.05,596.872 215.18,596.147Z" style="fill:white;"/>
            </g>
            <g transform="matrix(0.968452,0,0,0.968452,17.2415,17.5456)">
                <path d="M764.553,937.952L821.014,883.589C794.201,870.691 769.048,855.155 722.581,812.268C672.285,846.081 612.125,866.331 547.359,867.76C590.028,915.053 621.874,954.222 642.898,985.269C686.107,975.309 726.982,959.214 764.553,937.952Z" style="fill-opacity:0;"/>
                <path d="M764.553,937.952C726.982,959.214 686.107,975.309 642.898,985.269C621.874,954.222 590.028,915.053 547.359,867.76C612.125,866.331 672.285,846.081 722.581,812.268C769.048,855.155 794.201,870.691 821.014,883.589L764.553,937.952ZM748,915.665L748.002,915.664C748.002,915.664 775.057,889.614 775.057,889.614C759.533,879.682 742.056,866.486 719.585,846.665C684.269,867.403 645.063,882.217 603.335,889.737C623.724,913.631 640.778,935.032 654.516,953.927C687.429,944.829 718.76,931.905 748,915.665Z" style="fill:white;"/>
            </g>
            <g transform="matrix(0.968452,0,0,0.968452,17.2415,17.5456)">
                <path d="M704.384,113.586C875.448,179.651 996.923,345.751 996.923,540C996.923,669.61 942.842,786.688 856.033,869.879L832.951,858.775C808.357,846.945 785.402,832.609 745.042,795.745C819.893,735.638 867.841,643.374 867.841,540C867.841,382.577 756.646,250.92 608.58,219.356C642.232,190.915 674.591,156.893 704.384,113.586Z" style="fill-opacity:0;"/>
                <path d="M704.384,113.586C875.448,179.651 996.923,345.751 996.923,540C996.923,669.61 942.842,786.688 856.033,869.879L832.951,858.775C808.357,846.945 785.402,832.609 745.042,795.745C819.893,735.638 867.841,643.374 867.841,540C867.841,382.577 756.646,250.92 608.58,219.356C642.232,190.915 674.591,156.893 704.384,113.586ZM714.028,147.392C697.638,169.353 680.589,188.898 663.062,206.549C798.621,256.66 895.377,387.117 895.377,540C895.377,640.336 853.712,731.02 786.746,795.664C810.656,815.526 827.279,825.492 844.887,833.962C844.887,833.962 850.366,836.598 850.367,836.598C924.081,759.487 969.388,654.993 969.388,540C969.388,364.947 864.408,214.223 714.028,147.392Z" style="fill:white;"/>
            </g>
            <g transform="matrix(0.968452,0,0,0.968452,17.2415,17.5456)">
                <path d="M93.75,441.456C131.949,267.959 268.874,131.312 442.521,93.516C400.877,163.919 335.79,246.828 235.028,324.105C177.86,367.949 130.42,406.237 93.75,441.456Z" style="fill-opacity:0;"/>
                <path d="M93.75,441.456C131.949,267.959 268.874,131.312 442.521,93.516C400.877,163.919 335.79,246.828 235.028,324.105C177.86,367.949 130.42,406.237 93.75,441.456ZM153.286,353.263C173.314,337.056 194.997,320.105 218.271,302.256C286.732,249.752 338.177,194.582 376.677,142.805C278.874,183.105 199.17,258.497 153.286,353.263Z" style="fill:white;"/>
            </g>
            <g transform="matrix(0.968452,0,0,0.968452,17.2415,17.5456)">
                <path d="M613.837,990.977C589.8,994.889 565.136,996.923 540,996.923C402.758,996.923 279.567,936.285 195.781,840.362C213.779,839.285 231.972,835.358 249.628,829.458C278.91,819.674 306.407,804.588 328.26,790.219C378.048,832.402 440.571,860.006 509.211,866.412C555.784,916.725 590.708,958.205 613.837,990.977Z" style="fill-opacity:0;"/>
                <path d="M613.837,990.977C589.8,994.889 565.136,996.923 540,996.923C402.758,996.923 279.567,936.285 195.781,840.362C213.779,839.285 231.972,835.358 249.628,829.458C278.91,819.674 306.407,804.588 328.26,790.219C378.048,832.402 440.571,860.006 509.211,866.412C555.784,916.725 590.708,958.205 613.837,990.977ZM562.321,968.817C544.15,946.395 522.016,921.026 495.968,892.668C432.795,884.843 374.736,860.42 326.304,823.897C306.082,835.877 282.783,847.411 258.355,855.574C256.038,856.348 253.713,857.092 251.381,857.803C327.648,927.116 428.926,969.388 540,969.388C547.486,969.388 554.928,969.196 562.321,968.817Z" style="fill:white;"/>
            </g>
        </g>
        <g transform="matrix(18.3246,0,0,18.3246,-15066.7,-20468.2)">
            <path d="M855.462,1143.95C855.414,1146.37 855.096,1156.25 855.096,1156.25C855.096,1156.25 854.419,1152.87 852.82,1152.5C851.05,1152.09 848.426,1152.35 848.426,1152.35C848.226,1164.98 848.695,1167.71 849.662,1170.31L838.462,1170.31C839.662,1167.37 840.112,1159.81 839.812,1147.61C839.679,1143.01 839.212,1139.99 838.412,1138.56C840.179,1138.39 842.179,1138.02 844.412,1137.46C846.679,1136.89 848.429,1136.32 849.662,1135.76C849.062,1137.32 848.61,1144.25 848.476,1149.31C848.476,1149.31 852.194,1149.67 853.425,1148.51C854.593,1147.41 855.349,1144.89 855.462,1143.95ZM837.312,1147.46C838.342,1147.84 827.784,1147.34 826.496,1141.68C825.683,1138.1 826.548,1131.5 832.083,1129.16C835.315,1127.8 840.385,1128.15 847.699,1128.97C864.352,1130.85 874.094,1123.54 874.094,1123.54C875.725,1128.78 876.883,1134.27 876.883,1134.27C861.216,1139.6 853.793,1129.23 840.574,1133.87C826.988,1138.63 837.312,1147.46 837.312,1147.46Z" style="fill:white;"/>
        </g>
        <g transform="matrix(18.3246,0,0,18.3246,-15066.7,-20468.2)">
            <path d="M834.491,1143.95C832.916,1141.04 832.536,1136.94 839.889,1134.12C839.612,1134.37 839.341,1134.63 839.077,1134.91C838.438,1135.57 837.863,1136.27 837.352,1137C837.244,1137.08 837.14,1137.15 837.04,1137.23L837.21,1137.21C836.982,1137.55 836.767,1137.89 836.565,1138.24L836.335,1137.82C835.806,1138.34 835.449,1138.87 835.236,1139.43C834.966,1140.13 834.958,1140.83 835.099,1141.51C834.836,1142.31 834.634,1143.12 834.491,1143.95Z" style="fill-opacity:0;"/>
        </g>
        <g transform="matrix(18.3246,0,0,18.3246,-15066.7,-20468.2)">
            <path d="M827.443,1145.74C827.474,1145.12 827.528,1144.49 827.608,1143.87C829.203,1145.76 832.032,1146.74 834.237,1147.2C834.245,1147.7 834.275,1148.2 834.325,1148.69C832.966,1148.44 831.366,1148 829.893,1147.3C829.004,1146.88 828.168,1146.36 827.443,1145.74Z" style="fill-opacity:0;"/>
        </g>
        <g transform="matrix(18.3246,0,0,18.3246,-15066.7,-20468.2)">
            <path d="M834.325,1148.69C834.275,1148.2 834.245,1147.7 834.237,1147.2C836.241,1147.63 837.73,1147.62 837.312,1147.46C837.312,1147.46 835.603,1146 834.491,1143.95C834.634,1143.12 834.836,1142.31 835.099,1141.51C835.214,1142.06 835.429,1142.59 835.68,1143.08C836.571,1144.82 837.99,1146.12 838.225,1146.33L838.225,1146.33L838.294,1146.37L838.312,1146.39C838.158,1142.84 837.805,1140.46 837.141,1139.27L836.565,1138.24C836.767,1137.89 836.982,1137.55 837.21,1137.21L838.275,1137.11C839.977,1136.95 841.903,1136.59 844.057,1136.05L844.059,1136.05C846.215,1135.51 847.881,1134.97 849.054,1134.43L851.021,1136.28C850.498,1137.64 850.134,1143.24 849.975,1147.91C850.294,1147.9 850.643,1147.88 850.991,1147.85C851.544,1147.78 852.083,1147.69 852.428,1147.45C853.414,1146.77 856.708,1141.11 856.708,1141.11C856.659,1143.52 856.38,1159.4 856.38,1159.4C856.38,1159.4 854.218,1156.87 853.768,1156C853.67,1155.81 852.811,1154.27 852.684,1154.12C852.621,1154.04 852.578,1153.94 852.491,1153.92C851.676,1153.73 850.657,1153.7 849.862,1153.72C849.798,1158.64 849.842,1161.88 849.99,1164.18C849.501,1164.13 849.013,1164.07 848.529,1163.98C848.378,1161.43 848.34,1157.82 848.426,1152.35C848.426,1152.35 851.05,1152.09 852.82,1152.5C854.419,1152.87 855.096,1155.6 855.096,1155.6C855.096,1155.6 855.414,1146.91 855.462,1144.5C855.349,1145.45 854.593,1147.41 853.425,1148.51C852.194,1149.67 848.476,1149.31 848.476,1149.31C848.61,1144.25 849.062,1137.32 849.662,1135.76C848.429,1136.32 846.679,1136.89 844.412,1137.46C842.179,1138.02 840.179,1138.39 838.412,1138.56C839.212,1139.99 839.679,1143.01 839.812,1147.61C839.928,1152.32 839.932,1156.34 839.824,1159.67C839.729,1159.59 839.634,1159.5 839.541,1159.41C839.145,1159.03 838.772,1158.63 838.421,1158.22C838.475,1155.45 838.46,1152.23 838.379,1148.57L838.352,1148.6L837.94,1148.87L837.508,1148.99C837.156,1149.04 835.903,1148.99 834.325,1148.69Z" style="fill-opacity:0;"/>
        </g>
        <g transform="matrix(18.3246,0,0,18.3246,-15066.7,-20468.2)">
            <path d="M864.73,1135.67C865.161,1136.17 865.559,1136.69 865.923,1137.23C862.904,1137.04 860.148,1136.4 857.463,1135.74C852.259,1134.46 847.348,1133.03 841.055,1135.24C839.484,1135.79 838.268,1136.38 837.352,1137C837.863,1136.27 838.438,1135.57 839.077,1134.91C839.341,1134.63 839.612,1134.37 839.889,1134.12C840.11,1134.03 840.338,1133.95 840.574,1133.87C849.864,1130.61 856.292,1134.76 864.73,1135.67Z" style="fill-opacity:0;"/>
        </g>
        <g transform="matrix(18.3246,0,0,18.3246,-15066.7,-20468.2)">
            <path d="M872.766,1135.37C873.008,1135.81 873.235,1136.26 873.447,1136.72C870.726,1137.27 868.247,1137.38 865.923,1137.23C865.559,1136.69 865.161,1136.17 864.73,1135.67C867.196,1135.93 869.834,1135.92 872.766,1135.37Z" style="fill-opacity:0;"/>
        </g>
        <g transform="matrix(18.3246,0,0,18.3246,-15066.7,-20468.2)">
            <path d="M849.99,1164.18C850.175,1167.06 850.523,1168.45 851.026,1169.8L851.498,1171.07C849.489,1171.06 847.479,1170.81 845.52,1170.31L849.662,1170.31C849.114,1168.83 848.726,1167.32 848.529,1163.98C849.013,1164.07 849.501,1164.13 849.99,1164.18Z" style="fill-opacity:0;"/>
        </g>
        <g transform="matrix(18.3246,0,0,18.3246,-15066.7,-20468.2)">
            <path d="M839.154,1167.65C838.708,1167.38 838.269,1167.1 837.838,1166.8C838.159,1164.71 838.35,1161.85 838.421,1158.22C838.772,1158.63 839.145,1159.03 839.541,1159.41C839.634,1159.5 839.729,1159.59 839.824,1159.67C839.715,1163.04 839.491,1165.7 839.154,1167.65Z" style="fill-opacity:0;"/>
        </g>
        <g transform="matrix(18.3246,0,0,18.3246,-15066.7,-20468.2)">
            <path d="M827.443,1145.74C826.292,1144.76 825.423,1143.52 825.077,1142C824.153,1137.93 825.228,1130.47 831.518,1127.82C833.228,1127.1 835.431,1126.81 838.181,1126.82C837.493,1127.27 836.824,1127.77 836.177,1128.31C834.575,1128.42 833.216,1128.68 832.083,1129.16C826.548,1131.5 825.683,1138.1 826.496,1141.68C826.686,1142.52 827.079,1143.24 827.608,1143.87C827.528,1144.49 827.474,1145.12 827.443,1145.74Z" style="fill-opacity:0;"/>
        </g>
        <g transform="matrix(18.3246,0,0,18.3246,-15066.7,-20468.2)">
            <path d="M836.177,1128.31C836.824,1127.77 837.493,1127.27 838.181,1126.82C840.868,1126.82 844.078,1127.1 847.862,1127.53C854.53,1128.28 860.047,1127.51 864.214,1126.35C864.748,1126.68 865.273,1127.04 865.787,1127.41C861.344,1128.79 855.228,1129.82 847.699,1128.97C842.948,1128.44 839.145,1128.1 836.177,1128.31Z" style="fill-opacity:0;"/>
        </g>
        <g transform="matrix(18.3246,0,0,18.3246,-15066.7,-20468.2)">
            <path d="M864.214,1126.35C870.037,1124.74 873.221,1122.38 873.221,1122.38L874.871,1121.14L875.484,1123.11C877.135,1128.41 878.307,1133.97 878.307,1133.97L878.573,1135.24L877.351,1135.65C875.993,1136.11 874.695,1136.46 873.447,1136.72C873.235,1136.26 873.008,1135.81 872.766,1135.37C874.076,1135.12 875.445,1134.76 876.883,1134.27C876.883,1134.27 875.725,1128.78 874.094,1123.54C874.094,1123.54 871.17,1125.74 865.787,1127.41C865.273,1127.04 864.748,1126.68 864.214,1126.35Z" style="fill-opacity:0;"/>
        </g>
        <g transform="matrix(18.3246,0,0,18.3246,-15066.7,-20468.2)">
            <path d="M851.498,1171.07L851.756,1171.76L836.294,1171.76L837.115,1169.76C837.405,1169.05 837.645,1168.06 837.838,1166.8C838.269,1167.1 838.708,1167.38 839.154,1167.65C838.961,1168.77 838.73,1169.65 838.462,1170.31L845.52,1170.31C847.479,1170.81 849.489,1171.06 851.498,1171.07Z" style="fill-opacity:0;"/>
        </g>
    </g>
</svg>
