<?xml version="1.0" encoding="UTF-8" standalone="no"?>
<!DOCTYPE svg PUBLIC "-//W3C//DTD SVG 1.1//EN" "http://www.w3.org/Graphics/SVG/1.1/DTD/svg11.dtd">
<svg width="100%" height="100%" viewBox="0 0 1080 1080" version="1.1" xmlns="http://www.w3.org/2000/svg" xmlns:xlink="http://www.w3.org/1999/xlink" xml:space="preserve" xmlns:serif="http://www.serif.com/" style="fill-rule:evenodd;clip-rule:evenodd;stroke-linejoin:round;stroke-miterlimit:2;">
    <g id="coiso" transform="matrix(1.21571,0,0,1.21571,-111.869,-143.825)">
        <path d="M314.015,455.482L360.312,508.911C358.878,508.357 357.404,507.891 355.889,507.513C350.572,506.007 345.327,505.72 340.193,506.568C335.727,507.181 331.586,508.503 327.779,510.491L327.779,501.943L308.556,508.681C304.215,510.202 299.819,511.536 295.368,512.681L287.927,514.411C286.041,514.803 284.146,515.162 282.242,515.488C283.607,508.096 285.287,500.815 287.269,493.658C293.913,492.491 300.884,490.728 308.251,488.226L320.381,484.105L317.739,471.57C317.739,471.57 316.354,464.998 314.015,455.482ZM443.859,505.762L377.041,359.452C407.24,335.825 442.835,318.783 481.657,310.496L500.922,444.49L483.078,447.039L491.189,464.1C491.386,465.38 492.649,473.718 493.238,481.341C495.191,506.632 496.163,547.181 496.163,568.451C496.163,568.785 496.163,569.117 496.162,569.449L491.577,568.202C490.368,568.01 489.116,567.9 487.822,567.885L487.774,559.028C487.768,550.001 486.097,542.006 482.964,535.003L482.959,534.992C475.912,519.313 463.083,509.272 443.859,505.762ZM572.541,489.953L598.062,312.455C636.334,321.996 671.233,340.104 700.599,364.62L637.057,503.756C635.57,504.468 634.097,505.243 632.638,506.082L632.569,506.122C628.14,508.733 624.417,511.724 621.351,515.062L621.351,509.917L579.869,485.91L572.541,489.953ZM725.233,502.513L768.631,452.428C776.623,469.302 782.836,487.18 787.026,505.82L771.768,505.82L771.768,473.089L748.301,491.864C744.922,494.566 739.727,497.119 732.869,499.82C730.278,500.812 727.733,501.71 725.233,502.513ZM657.455,640.799L626.616,660.618C622.892,660.675 619.3,660.472 615.991,659.985C608.264,658.845 601.297,656.12 595.163,652.621L606.37,639.688L623.875,639.688L622.247,634.984C631.066,638.481 642.77,640.581 657.455,640.799ZM706.546,667.38L779.442,645.976C770.713,671.442 758.104,695.114 742.321,716.283L595.346,716.283C595.208,718.572 594.931,720.823 594.524,723.029C589.887,723.85 585.152,725.32 580.378,727.148L592.802,730.491C587.021,731.839 581.101,734.208 575.159,736.888L567.8,732.575C566.662,733.106 565.525,733.642 564.389,734.18C562.671,734.994 560.957,735.816 559.251,736.621L564.309,741.965C561.305,743.381 558.312,744.766 555.347,746.026L552.155,739.84C549.55,740.952 546.971,741.949 544.429,742.746L545.582,749.639C541.906,750.746 538.302,751.484 534.799,751.662L535.841,744.574C534.949,744.657 534.063,744.7 533.184,744.7C531.036,744.7 528.948,744.428 526.906,743.948L523.876,750.349C520.655,749.439 517.519,748.129 514.431,746.6L519.044,741.131C515.781,739.607 512.592,737.747 509.405,735.858L502.798,740.085C496.882,736.594 490.963,733.157 484.76,731.136L495.71,728.192C492.425,726.575 489.096,725.172 485.694,724.143C485.166,721.583 484.815,718.958 484.654,716.283L328.925,716.283C312.555,694.325 299.599,669.676 290.846,643.124L485.97,700.418C487.205,695.061 489.218,690 491.883,685.36L420.063,639.204C421.42,638.666 422.73,638.056 423.991,637.377L424.075,637.332C428.152,635.067 431.69,632.224 434.703,628.773C442.484,636.902 453.667,641.61 468.734,641.61C470.885,641.61 472.969,641.49 474.989,641.256L481.04,648.24L480.73,648.988L481.534,648.809L502.058,672.496C506.087,668.712 510.681,665.523 515.698,663.07L506.768,643.515C507.755,643.526 515.028,643.69 527.781,646.112C528.444,646.942 529.323,648.042 530.377,649.351L531.634,658.095C533.409,657.826 535.211,657.641 537.037,657.544C542.652,664.38 549.628,672.689 555.754,679.437C565.703,690.398 576.392,700.144 585.325,704.709C604.976,714.751 625.957,717.834 657.142,714.925C683.734,712.444 707.195,693.878 707.195,693.878L716.376,686.543L711.063,676.061C711.063,676.061 709.132,672.26 706.546,667.38ZM506.759,643.496L506.739,643.452L507.489,643.374C507.453,643.382 506.977,643.46 506.759,643.496ZM777.722,563.508L772.925,566.591C772.531,566.57 772.132,566.559 771.728,566.557C771.69,559.493 771.651,551.274 771.613,541.896L774.388,541.896C774.223,542.781 774.092,543.669 773.995,544.561L773.98,544.702C773.32,552.128 774.632,558.358 777.722,563.508ZM664.322,608.803C664.388,608.921 664.363,608.96 664.335,608.951C664.33,608.902 664.326,608.853 664.322,608.803ZM408.655,751.6L426.032,746.928C420.09,749.345 414.251,751.16 408.655,751.6ZM639.577,743.078L670.682,751.448C669.336,751.614 667.996,751.703 666.661,751.703C657.498,751.703 648.544,747.699 639.577,743.078Z" style="fill:rgb(255,237,246);"/>
    </g>
    <g transform="matrix(1.12737,0,0,0.912237,213.915,80.8827)">
        <path d="M83.608,734.974C79.566,729.516 75.665,723.895 71.912,718.122C76.05,717.158 79.946,716.526 83.433,716.287C96.262,715.409 108.248,723.274 120.119,731.893C129.472,738.685 138.709,746.111 148.935,746.111C159.464,746.111 170.871,738.927 182.353,732.112C196.012,724.005 209.742,716.273 222.154,716.273C234.905,716.273 246.42,724.161 257.832,732.489C266.87,739.084 275.796,746.111 285.986,746.111C296.532,746.111 307.981,738.917 319.636,732.091C333.439,724.007 347.459,716.273 360.457,716.273C373.624,716.273 386.381,724.081 398.947,732.269C409.263,738.992 419.394,746.111 429.922,746.111C440.51,746.111 451.368,738.621 462.22,731.698C475.467,723.247 488.699,715.498 501.028,716.285C502.67,716.39 504.375,716.589 506.129,716.874C501.968,723.335 497.623,729.607 493.103,735.677C485.335,737.662 477.317,743.073 469.148,748.284C456.053,756.637 442.698,764.777 429.922,764.777C417.085,764.777 404.481,756.977 391.902,748.78C381.573,742.049 371.281,734.938 360.457,734.938C349.465,734.938 337.777,742.123 326.104,748.959C312.283,757.053 298.492,764.777 285.986,764.777C273.125,764.777 261.559,756.885 250.152,748.561C241.119,741.969 232.247,734.938 222.154,734.938C211.724,734.938 200.37,742.125 188.892,748.938C175.237,757.042 161.457,764.777 148.935,764.777C136.109,764.777 124.199,756.505 112.468,747.987C103.253,741.296 94.226,734.243 84.268,734.924C84.05,734.939 83.83,734.956 83.608,734.974ZM145.369,797.516C139.615,793.226 133.996,788.685 128.524,783.905C136.528,780.5 144.349,778.198 151.753,778.198C165.732,778.198 178.314,786.165 190.825,794.503C201.106,801.354 211.311,808.57 222.903,808.57C234.836,808.57 247.827,801.205 261.016,794.152C276.207,786.028 291.607,778.198 305.912,778.198C320.377,778.198 334.358,786.093 348.164,794.308C359.865,801.272 371.399,808.57 383.34,808.57C395.381,808.57 408.129,801.277 420.642,794.272C432.152,787.828 443.495,781.593 453.953,779.212C431.931,799.406 407.412,815.673 381.078,827.169C367.76,826.39 354.689,818.908 341.611,811.126C329.897,804.155 318.186,796.864 305.912,796.864C293.477,796.864 280.22,804.22 267.014,811.282C251.806,819.415 236.663,827.236 222.903,827.236C208.802,827.236 196.163,819.266 183.656,810.931C173.38,804.083 163.235,796.864 151.753,796.864C149.657,796.864 147.527,797.096 145.369,797.516Z" style="fill:rgb(255,237,246);"/>
    </g>
    <g transform="matrix(1.0413,0,0,1.0413,-23.0128,-22.3047)">
        <g>
            <path d="M118.059,393.585C178.723,218.954 344.822,93.462 540,93.462C762.706,93.462 947.551,256.849 981.104,470.192C975.61,471.771 970.295,474.031 965.172,476.977L965.091,477.024C957.779,481.336 952.15,486.553 948.031,492.561C947.191,491.18 946.297,489.825 945.348,488.497C941.496,483.105 937.07,478.931 932.191,475.849C927.717,473.024 922.226,470.687 915.636,469.037C910.015,467.587 903.42,466.789 895.879,466.789L895.717,466.789C885.263,466.99 874.966,468.841 864.674,472.389C861.52,473.425 858.52,474.577 855.672,475.838C825.894,328.776 695.79,217.925 540,217.925C425.549,217.925 324.962,277.752 267.831,367.812L264.517,357.172L245.404,371.506C245.404,371.506 202.222,403.007 128.676,394.719C125.034,394.309 121.496,393.929 118.059,393.585ZM975.015,641.141C929.139,838.942 751.67,986.538 540,986.538C324.35,986.538 144.199,833.339 102.537,629.931L230.67,629.931C269.63,763.983 393.45,862.075 540,862.075C687.922,862.075 812.686,762.139 850.402,626.158C855.326,627.913 860.78,628.826 866.789,628.855C873.467,629.076 879.794,627.808 885.729,625.11L885.879,625.042C891.621,622.296 896.47,618.867 900.605,614.732L900.775,614.562C902.97,612.238 905.039,609.761 907.01,607.088C909.758,610.698 912.831,614.066 916.226,617.194L916.286,617.249C926.955,626.893 938.715,633.471 951.568,637.144L951.72,637.187C959.28,639.195 967.032,640.514 975.015,641.141ZM227.496,461.819C226.697,465.02 225.946,468.239 225.243,471.477C217.844,466.769 209.218,464.279 199.277,464.279C187.995,464.279 178.405,467.487 170.382,473.504L170.279,467.546C166.373,470.57 163.186,474.306 160.468,477.566C157.707,480.878 148.541,482.577 148.541,482.577C149.331,467.906 150.486,454.839 152.111,450.596L152.62,449.268C159.108,450.662 165.538,452.355 172.071,453.964C189.34,458.218 207.176,462.181 227.496,461.819ZM984.61,581.736C984.423,583.743 984.224,585.747 984.011,587.747C981.197,584.722 978.682,581.054 976.411,576.777C977.301,577.326 978.242,577.902 979.235,578.504L979.33,578.561C981.206,579.665 982.964,580.722 984.61,581.736ZM154.317,612.967L152.17,607.191C148.417,597.096 146.78,586.563 146.957,547.764C146.957,547.764 154.254,547.74 156.697,549.315C159.141,550.89 161.031,553.176 161.618,557.214L161.643,557.386C162.937,565.151 163.166,573.729 162.464,583.29C161.809,592.056 160.14,599.733 157.262,606.276L154.317,612.967ZM307.771,286.291L323.406,272.203L284.772,229.327L301.67,214.101L290.499,201.704L240.99,246.314L252.161,258.711L269.138,243.414L307.771,286.291ZM352.405,232.594L379.718,216.801L391.976,226.411L410.931,215.45L345.164,167.535L327.221,177.909L336.032,258.759L354.619,248.011L352.405,232.594ZM366.559,206.484L350.028,216.042L346.385,190.669L366.559,206.484ZM616.564,202.801C627.249,205.344 636.287,204.4 643.679,199.968C651.071,195.537 656.047,187.944 658.606,177.191L668.157,137.072L647.994,132.272L638.591,171.771C637.115,177.975 634.85,182.134 631.797,184.248C628.745,186.362 625.082,186.91 620.808,185.893C616.534,184.875 613.476,182.727 611.635,179.448C609.862,176.185 609.714,171.452 611.191,165.248L620.593,125.75L600.12,120.876L590.57,160.995C588.01,171.748 589.032,180.769 593.634,188.055C598.236,195.342 605.88,200.257 616.564,202.801ZM530.947,193.968C536.968,193.805 542.432,192.701 547.338,190.654C552.316,188.605 556.599,185.796 560.189,182.226C563.778,178.655 566.537,174.505 568.464,169.774C570.461,164.971 571.384,159.771 571.232,154.176C571.081,148.58 569.879,143.473 567.628,138.856C565.447,134.236 562.468,130.241 558.691,126.87C554.912,123.428 550.482,120.819 545.401,119.042C540.391,117.264 534.876,116.456 528.855,116.619C522.905,116.78 517.442,117.885 512.464,119.933C507.487,121.982 503.169,124.828 499.511,128.471C495.921,132.041 493.163,136.192 491.235,140.922C489.307,145.653 488.419,150.816 488.571,156.412C488.722,162.007 489.888,167.115 492.068,171.734C494.249,176.354 497.229,180.384 501.008,183.826C504.856,187.196 509.32,189.768 514.401,191.545C519.482,193.321 524.998,194.129 530.947,193.968ZM530.476,176.543C527.643,176.62 524.973,176.196 522.467,175.271C520.032,174.345 517.869,172.986 515.977,171.194C514.155,169.329 512.677,167.101 511.543,164.509C510.481,161.915 509.907,159.024 509.82,155.837C509.732,152.578 510.149,149.661 511.072,147.084C512.064,144.435 513.42,142.165 515.141,140.275C516.931,138.313 519.017,136.804 521.398,135.747C523.85,134.688 526.493,134.12 529.327,134.044C532.16,133.967 534.794,134.392 537.229,135.319C539.735,136.243 541.899,137.638 543.722,139.502C545.613,141.294 547.09,143.487 548.153,146.081C549.284,148.602 549.894,151.492 549.982,154.75C550.069,157.938 549.616,160.856 548.624,163.506C547.704,166.154 546.348,168.459 544.558,170.421C542.837,172.31 540.751,173.784 538.298,174.843C535.917,175.9 533.309,176.467 530.476,176.543ZM755.804,252.652L779.719,273.231L774.688,287.972L791.285,302.253L814.838,224.365L799.127,210.847L725.704,245.822L741.978,259.825L755.804,252.652ZM785.12,257.406L770.646,244.952L793.4,233.146L785.12,257.406ZM696.661,233.277C702.758,236.45 708.751,238.211 714.64,238.56C720.625,238.879 726.251,237.893 731.517,235.601L725.232,218.67C721.786,220.072 718.431,220.762 715.167,220.741C711.966,220.753 708.794,219.941 705.651,218.305C702.948,216.898 700.695,215.166 698.89,213.108C697.085,211.051 695.791,208.78 695.007,206.295C694.319,203.78 694.109,201.114 694.376,198.298C694.707,195.514 695.608,192.708 697.08,189.88C698.552,187.051 700.333,184.703 702.423,182.836C704.577,181.001 706.864,179.675 709.286,178.858C711.804,178.012 714.423,177.737 717.144,178.035C719.864,178.333 722.576,179.185 725.279,180.592C728.422,182.227 730.907,184.359 732.734,186.988C734.624,189.649 735.983,192.793 736.812,196.419L754.285,191.854C753.173,186.163 750.754,180.989 747.026,176.333C743.361,171.71 738.48,167.812 732.383,164.638C727.166,161.923 721.885,160.253 716.539,159.628C711.288,158.972 706.228,159.333 701.356,160.712C696.548,162.124 692.136,164.461 688.121,167.724C684.14,170.923 680.84,175.038 678.223,180.066C675.606,185.094 674.113,190.189 673.744,195.349C673.408,200.446 674.041,205.368 675.644,210.117C677.31,214.898 679.901,219.282 683.417,223.269C687.03,227.225 691.444,230.561 696.661,233.277ZM431.911,189.312L442.968,186.196L461.314,201.566L483.003,195.455L461.203,177.29C464.948,173.985 467.52,170.173 468.92,165.854C470.397,161.168 470.376,156.131 468.858,150.743C467.321,145.287 464.699,140.946 460.993,137.72C457.267,134.426 452.72,132.395 447.35,131.626C442.048,130.838 436.123,131.366 429.576,133.211L396.839,142.435L417.016,214.048L437.273,208.34L431.911,189.312ZM427.501,173.659L421.592,152.687L432.845,149.516C437.074,148.325 440.47,148.361 443.035,149.626C445.668,150.872 447.456,153.166 448.397,156.508C449.32,159.782 448.983,162.637 447.388,165.074C445.861,167.492 442.983,169.297 438.754,170.488L427.501,173.659ZM771.383,834.051L765.226,825.082L788.464,806.109L778.179,793.512L741.459,823.492L766.071,859.519L781.714,846.747C784.678,844.327 787.157,842.714 789.153,841.909C791.103,841.048 792.788,840.816 794.209,841.211C795.584,841.551 796.743,842.298 797.684,843.45C799.252,845.372 799.634,847.576 798.829,850.063C797.979,852.495 796.181,854.831 793.437,857.072C790.693,859.312 787.585,861.164 784.113,862.626C780.697,864.043 777.181,864.947 773.566,865.337L777.736,882.377C782.124,881.813 786.725,880.39 791.538,878.106C796.352,875.823 800.734,873.068 804.686,869.841C810.504,865.091 814.49,860.282 816.644,855.413C818.798,850.544 819.543,845.911 818.88,841.513C818.226,837.015 816.51,833.065 813.732,829.662C810.953,826.259 807.67,823.862 803.883,822.473C800.05,821.028 795.755,820.921 790.998,822.153C786.195,823.329 780.94,826.248 775.232,830.908L771.383,834.051ZM464.198,940.724L461.411,954.692L481.527,958.706L484.315,944.739L495.155,946.902L498.42,930.537L487.58,928.374L490.055,915.97L470.564,912.081L468.089,924.485L453.24,921.522L491.501,884.828L470.133,880.564L428.315,919.583L425.632,933.029L464.198,940.724ZM697.217,868.062L712.66,867.721C712.723,864.891 713.458,862.364 714.865,860.141C716.272,857.918 718.136,856.125 720.458,854.762C723.208,853.148 725.596,852.527 727.622,852.898C729.709,853.234 731.362,854.441 732.582,856.519C733.084,857.374 733.487,858.411 733.792,859.629C734.121,860.75 734.217,862.173 734.079,863.898C734.002,865.586 733.575,867.727 732.796,870.32L721.965,906.875L728.638,918.241L778.592,888.914L770.144,874.523L745.381,889.061L750.93,870.767C752.335,866.162 753.138,862.281 753.338,859.123C753.564,855.869 753.359,853.071 752.726,850.732C752.056,848.332 751.111,846.093 749.891,844.015C747.559,840.043 744.463,837.218 740.603,835.541C736.803,833.827 732.573,833.271 727.913,833.87C723.253,834.47 718.448,836.222 713.498,839.128C707.204,842.823 702.514,847.22 699.427,852.319C696.707,856.812 695.18,861.433 694.844,866.184C690.986,863.39 686.824,861.591 682.36,860.789C676.697,859.734 670.929,860.355 665.056,862.654C659.117,864.979 654.394,868.463 650.886,873.109C647.443,877.728 645.449,883.227 644.901,889.604C644.354,895.982 645.578,902.998 648.574,910.652C651.57,918.306 655.434,924.289 660.165,928.601C664.897,932.912 670.094,935.596 675.758,936.651C681.487,937.68 687.321,937.033 693.26,934.708C699.132,932.41 703.79,928.951 707.232,924.331C710.74,919.686 712.768,914.175 713.315,907.797C713.863,901.419 712.638,894.403 709.642,886.749C706.646,879.095 702.783,873.112 698.051,868.8C697.775,868.549 697.497,868.302 697.217,868.062ZM686.984,918.674C684.872,919.501 682.733,919.577 680.567,918.903C678.467,918.203 676.354,916.595 674.228,914.08C672.142,911.472 670.156,907.76 668.271,902.943C666.359,898.06 665.297,893.986 665.085,890.721C664.938,887.431 665.398,884.816 666.465,882.876C667.598,880.911 669.221,879.515 671.332,878.688C673.444,877.862 675.549,877.798 677.65,878.498C679.816,879.172 681.929,880.78 683.989,883.322C686.049,885.863 688.035,889.576 689.946,894.458C691.832,899.275 692.894,903.349 693.132,906.68C693.345,909.945 692.884,912.56 691.751,914.525C690.684,916.465 689.095,917.848 686.984,918.674ZM383.744,868.526L393.632,880.413C395.888,878.701 398.323,877.703 400.938,877.421C403.553,877.138 406.117,877.482 408.629,878.45C411.604,879.598 413.577,881.08 414.547,882.897C415.583,884.74 415.667,886.785 414.8,889.033C414.443,889.958 413.883,890.919 413.119,891.916C412.447,892.871 411.393,893.832 409.957,894.797C408.588,895.788 406.646,896.786 404.132,897.791L368.78,912.067L364.037,924.364L418.084,945.208L424.088,929.638L397.297,919.305L415.069,912.262C419.548,910.495 423.085,908.708 425.681,906.899C428.369,905.05 430.431,903.149 431.868,901.197C433.329,899.178 434.494,897.045 435.361,894.798C437.018,890.5 437.302,886.319 436.212,882.253C435.188,878.213 432.991,874.555 429.621,871.281C426.251,868.007 421.888,865.337 416.533,863.272C409.724,860.646 403.363,859.711 397.451,860.469C392.238,861.137 387.667,862.82 383.738,865.518C383.527,860.749 382.345,856.364 380.19,852.363C377.492,847.274 373.415,843.146 367.961,839.98C362.446,836.778 356.778,835.25 350.959,835.395C345.201,835.575 339.656,837.436 334.323,840.977C328.99,844.518 324.26,849.843 320.134,856.951C316.007,864.06 313.729,870.808 313.299,877.194C312.869,883.581 314.003,889.319 316.702,894.409C319.462,899.534 323.599,903.698 329.115,906.899C334.569,910.065 340.175,911.558 345.933,911.378C351.752,911.233 357.328,909.39 362.661,905.849C367.994,902.308 372.724,896.983 376.85,889.875C380.977,882.766 383.255,876.018 383.685,869.631C383.71,869.261 383.73,868.893 383.744,868.526ZM337.759,892.008C335.798,890.87 334.407,889.243 333.587,887.128C332.828,885.049 332.771,882.394 333.417,879.164C334.16,875.908 335.83,872.043 338.426,867.57C341.059,863.035 343.587,859.668 346.01,857.47C348.494,855.307 350.828,854.04 353.01,853.668C355.253,853.332 357.356,853.733 359.317,854.871C361.278,856.01 362.638,857.618 363.397,859.698C364.218,861.813 364.274,864.468 363.567,867.662C362.86,870.856 361.19,874.721 358.558,879.256C355.961,883.729 353.433,887.096 350.974,889.356C348.551,891.554 346.218,892.821 343.974,893.158C341.792,893.53 339.72,893.146 337.759,892.008ZM528.982,939.653L560.016,939.308L559.844,923.791L528.81,924.136L528.982,939.653ZM624.629,936.436L635.734,920.874C638.537,916.96 640.538,913.539 641.736,910.611C642.99,907.599 643.691,904.883 643.838,902.464C643.97,899.975 643.79,897.552 643.299,895.193C642.358,890.684 640.327,887.018 637.205,884.195C634.152,881.357 630.322,879.478 625.715,878.557C621.107,877.636 615.994,877.761 610.375,878.933C603.231,880.423 597.381,883.09 592.827,886.935C588.272,890.78 585.12,895.274 583.369,900.416L600.444,905.759C601.408,903.097 602.912,900.937 604.956,899.281C606.999,897.624 609.338,896.521 611.974,895.971C615.096,895.32 617.557,895.495 619.358,896.494C621.228,897.479 622.409,899.151 622.901,901.51C623.103,902.481 623.154,903.592 623.053,904.844C623.007,906.012 622.643,907.39 621.962,908.98C621.349,910.556 620.26,912.447 618.694,914.656L596.749,945.833L599.44,958.735L656.146,946.91L652.74,930.574L624.629,936.436ZM284.966,854.265L304.055,853.233C308.863,852.981 312.785,852.41 315.821,851.52C318.957,850.621 321.517,849.473 323.499,848.079C325.526,846.629 327.308,844.977 328.844,843.121C331.781,839.573 333.379,835.698 333.637,831.497C333.95,827.34 333.028,823.175 330.873,818.999C328.718,814.824 325.43,810.907 321.009,807.247C315.387,802.593 309.652,799.686 303.805,798.526C297.959,797.366 292.48,797.707 287.369,799.547L293.848,816.224C296.531,815.317 299.157,815.145 301.726,815.708C304.295,816.271 306.617,817.411 308.692,819.128C311.148,821.161 312.547,823.193 312.89,825.224C313.287,827.3 312.717,829.266 311.181,831.122C310.548,831.887 309.712,832.62 308.671,833.322C307.729,834.014 306.425,834.59 304.757,835.049C303.144,835.554 300.986,835.883 298.283,836.037L260.226,838.341L251.823,848.494L296.446,885.43L307.086,872.575L284.966,854.265Z" style="fill:rgb(255,237,246);"/>
        </g>
    </g>
    <g transform="matrix(5.07853,0,0,5.07853,-4196.05,-5327.35)">
        <path d="M855.462,1143.95C855.414,1146.37 855.096,1156.25 855.096,1156.25C855.096,1156.25 854.419,1152.87 852.82,1152.5C851.05,1152.09 848.426,1152.35 848.426,1152.35C848.226,1164.98 848.695,1167.71 849.662,1170.31L838.462,1170.31C839.662,1167.37 840.112,1159.81 839.812,1147.61C839.679,1143.01 839.212,1139.99 838.412,1138.56C840.179,1138.39 842.179,1138.02 844.412,1137.46C846.679,1136.89 848.429,1136.32 849.662,1135.76C849.062,1137.32 848.61,1144.25 848.476,1149.31C848.476,1149.31 852.194,1149.67 853.425,1148.51C854.593,1147.41 855.349,1144.89 855.462,1143.95ZM837.312,1147.46C838.342,1147.84 827.784,1147.34 826.496,1141.68C825.683,1138.1 826.548,1131.5 832.083,1129.16C835.315,1127.8 840.385,1128.15 847.699,1128.97C864.352,1130.85 874.094,1123.54 874.094,1123.54C875.725,1128.78 876.883,1134.27 876.883,1134.27C861.216,1139.6 853.793,1129.23 840.574,1133.87C826.988,1138.63 837.312,1147.46 837.312,1147.46ZM868.012,1170.31L857.112,1170.31C857.845,1168.64 858.295,1166.69 858.462,1164.46C858.629,1162.19 858.562,1160.16 858.262,1158.36C857.995,1156.52 857.612,1155.11 857.112,1154.11C859.145,1154.11 861.145,1153.89 863.112,1153.46C865.112,1153.02 866.745,1152.37 868.012,1151.51C867.279,1153.37 866.862,1156.32 866.762,1160.36C866.695,1164.39 867.112,1167.71 868.012,1170.31ZM858.712,1150.26C857.679,1149.46 857.162,1148.49 857.162,1147.36C857.162,1146.22 857.679,1145.26 858.712,1144.46C859.779,1143.66 861.062,1143.26 862.562,1143.26C864.062,1143.26 865.345,1143.66 866.412,1144.46C867.479,1145.26 868.012,1146.22 868.012,1147.36C868.012,1148.49 867.479,1149.46 866.412,1150.26C865.345,1151.02 864.062,1151.41 862.562,1151.41C861.062,1151.41 859.779,1151.02 858.712,1150.26ZM879.212,1158.81C879.212,1164.37 879.645,1168.21 880.512,1170.31L869.162,1170.31C869.729,1169.04 870.129,1167.26 870.362,1164.96C870.629,1162.66 870.729,1160.39 870.662,1158.16C870.595,1155.89 870.429,1153.79 870.162,1151.86C869.895,1149.92 869.562,1148.61 869.162,1147.91C872.629,1147.57 875.979,1146.84 879.212,1145.71L879.212,1154.66C880.445,1150.12 882.062,1147.26 884.062,1146.06C884.695,1145.69 885.395,1145.46 886.162,1145.36C886.929,1145.22 887.712,1145.27 888.512,1145.51C889.345,1145.71 890.095,1146.09 890.762,1146.66C891.429,1147.19 891.979,1148.02 892.412,1149.16C892.845,1150.26 893.062,1151.57 893.062,1153.11C893.062,1153.21 893.045,1153.79 893.012,1154.86L893.012,1157.46C893.045,1158.09 893.062,1159.02 893.062,1160.26C893.095,1161.46 893.129,1162.49 893.162,1163.36C893.229,1164.22 893.312,1165.14 893.412,1166.11C893.512,1167.07 893.629,1167.92 893.762,1168.66C893.929,1169.36 894.129,1169.91 894.362,1170.31L883.412,1170.31C883.745,1169.87 884.029,1168.64 884.262,1166.61C884.495,1164.54 884.645,1162.37 884.712,1160.11C884.779,1157.81 884.662,1155.74 884.362,1153.91C884.095,1152.04 883.629,1151.07 882.962,1151.01C882.229,1150.97 881.579,1151.59 881.012,1152.86C880.445,1154.12 879.895,1155.84 879.362,1158.01C879.295,1158.27 879.245,1158.54 879.212,1158.81ZM908.712,1162.46C908.379,1163.62 908.029,1164.64 907.662,1165.51C907.329,1166.34 906.862,1167.21 906.262,1168.11C905.695,1169.01 904.962,1169.71 904.062,1170.21C903.195,1170.67 902.179,1170.91 901.012,1170.91C899.145,1170.91 897.662,1170.26 896.562,1168.96C895.495,1167.62 895.012,1166.06 895.112,1164.26C895.245,1162.42 895.962,1160.84 897.262,1159.51C898.195,1158.54 899.362,1157.71 900.762,1157.01C902.162,1156.27 903.395,1155.74 904.462,1155.41C905.562,1155.07 906.579,1154.57 907.512,1153.91C908.479,1153.21 909.095,1152.32 909.362,1151.26C909.629,1150.16 909.579,1149.14 909.212,1148.21C908.879,1147.24 908.145,1146.71 907.012,1146.61C906.445,1146.57 905.879,1146.72 905.312,1147.06C904.779,1147.39 904.362,1147.82 904.062,1148.36C903.795,1148.86 903.745,1149.49 903.912,1150.26C904.079,1150.99 904.529,1151.72 905.262,1152.46C904.562,1153.32 903.612,1153.91 902.412,1154.21C901.212,1154.47 900.062,1154.34 898.962,1153.81C897.895,1153.27 897.212,1152.37 896.912,1151.11C896.679,1149.31 897.762,1147.76 900.162,1146.46C902.795,1145.06 905.712,1144.57 908.912,1145.01C912.745,1145.47 915.329,1147.19 916.662,1150.16C917.229,1151.42 917.512,1152.87 917.512,1154.51L917.562,1163.71C917.562,1165.47 917.729,1166.81 918.062,1167.71C918.395,1168.61 918.929,1168.99 919.662,1168.86C920.629,1168.52 920.995,1167.41 920.762,1165.51C920.562,1163.57 919.912,1161.96 918.812,1160.66C920.712,1159.69 922.179,1159.92 923.212,1161.36C924.112,1162.69 924.245,1164.29 923.612,1166.16C922.879,1168.39 921.312,1169.82 918.912,1170.46C918.145,1170.69 917.312,1170.81 916.412,1170.81C911.345,1170.81 908.779,1168.02 908.712,1162.46ZM908.712,1158.31C908.745,1156.91 908.762,1155.91 908.762,1155.31C908.695,1155.34 908.512,1155.51 908.212,1155.81C907.945,1156.11 907.762,1156.31 907.662,1156.41C907.595,1156.47 907.429,1156.66 907.162,1156.96C906.929,1157.22 906.762,1157.44 906.662,1157.61C906.562,1157.74 906.395,1157.96 906.162,1158.26C905.929,1158.52 905.762,1158.76 905.662,1158.96L905.262,1159.76C905.095,1160.06 904.962,1160.34 904.862,1160.61C904.762,1160.87 904.662,1161.17 904.562,1161.51L904.362,1162.51C904.229,1163.31 904.245,1163.94 904.412,1164.41C904.579,1164.87 904.845,1165.11 905.212,1165.11C905.945,1165.04 906.579,1164.42 907.112,1163.26C907.679,1162.06 908.212,1160.41 908.712,1158.31ZM936.286,1127C935.552,1129.3 935.169,1146.85 935.136,1155.25C935.102,1163.62 935.486,1168.97 936.286,1171.3C936.286,1171.3 941.809,1180.71 951.158,1182.08C956.794,1182.91 965.36,1180.88 967.32,1177.34C967.633,1176.77 971.337,1184.08 971.337,1184.08C971.337,1184.08 966.588,1187.87 961.192,1188.37C954.555,1188.99 950.077,1188.43 945.895,1186.29C940.747,1183.66 933.124,1172.34 932.25,1172.16C926.531,1170.96 924.986,1171.3 924.986,1171.3C925.952,1168.97 926.436,1164.12 926.436,1156.75C926.436,1149.38 925.952,1132.48 924.986,1130.45C926.152,1130.28 927.452,1130.03 928.886,1129.7C930.352,1129.33 931.752,1128.91 933.086,1128.45C934.419,1127.95 935.486,1127.46 936.286,1127ZM948.694,1170.35L937.794,1170.35C938.527,1168.68 938.977,1166.73 939.144,1164.5C939.311,1162.23 939.244,1160.2 938.944,1158.4C938.677,1156.56 938.294,1155.15 937.794,1154.15C939.827,1154.15 941.827,1153.93 943.794,1153.5C945.794,1153.06 947.427,1152.41 948.694,1151.55C947.961,1153.41 947.544,1156.36 947.444,1160.4C947.377,1164.43 947.794,1167.75 948.694,1170.35ZM943.048,1151.83C941.236,1151.84 938.681,1150.77 938.64,1149.7C938.608,1148.86 938.64,1147.57 938.64,1147.57L942.975,1149.93L947.31,1147.57C947.31,1147.57 947.525,1148.72 947.31,1149.7C947.084,1150.73 945.034,1151.82 943.048,1151.83ZM948.254,1149.71L948.254,1145.23L942.975,1148.12L936.509,1144.33L942.975,1140.96L949.488,1144.73L949.488,1149.71L948.254,1149.71ZM954.435,1147.86C955.029,1146.64 956.008,1145.62 957.371,1144.82C958.769,1144.02 960.237,1143.53 961.775,1143.35C963.348,1143.14 964.868,1143.14 966.336,1143.35C967.839,1143.53 969.097,1144.03 970.11,1144.87C971.124,1145.68 971.648,1146.67 971.683,1147.86C971.718,1148.63 971.491,1149.31 971.002,1149.9C970.547,1150.5 969.936,1150.92 969.167,1151.16C968.433,1151.37 967.646,1151.44 966.808,1151.37C966.004,1151.3 965.235,1151.02 964.501,1150.53C963.767,1150.05 963.208,1149.36 962.823,1148.49C963.837,1148.21 964.448,1147.79 964.658,1147.23C964.903,1146.64 964.781,1146.11 964.291,1145.66C963.802,1145.2 963.155,1144.96 962.351,1144.92C961.408,1144.89 960.726,1145.2 960.307,1145.87C959.888,1146.5 959.748,1147.14 959.888,1147.81C959.922,1147.98 959.957,1148.14 959.992,1148.28C960.062,1148.42 960.15,1148.58 960.254,1148.75C960.394,1148.89 960.499,1149.03 960.569,1149.17C960.674,1149.28 960.814,1149.4 960.988,1149.54C961.163,1149.68 961.286,1149.8 961.355,1149.9C961.46,1149.98 961.635,1150.1 961.88,1150.27C962.124,1150.45 962.282,1150.57 962.351,1150.64C962.456,1150.67 962.649,1150.78 962.928,1150.95C963.208,1151.13 963.383,1151.25 963.452,1151.32C967.472,1153.94 969.918,1155.58 970.792,1156.25C972.12,1157.23 973.134,1158.17 973.833,1159.08C974.567,1159.99 975.021,1161.02 975.196,1162.17C975.405,1163.57 975.178,1164.83 974.514,1165.95C973.885,1167.03 972.941,1167.9 971.683,1168.57C970.425,1169.23 969.044,1169.74 967.542,1170.09C966.039,1170.4 964.466,1170.58 962.823,1170.61C958.315,1170.68 955.064,1170.07 953.072,1168.78C951.08,1167.49 950.119,1165.89 950.189,1164.01C950.224,1162.89 950.661,1161.96 951.5,1161.23C952.373,1160.5 953.527,1160.11 954.96,1160.08C956.427,1160.04 958.123,1160.55 960.045,1161.6C959.241,1162.23 958.752,1162.99 958.577,1163.9C958.402,1164.78 958.49,1165.58 958.839,1166.31C959.223,1167.05 959.853,1167.68 960.726,1168.2C961.6,1168.69 962.579,1168.92 963.662,1168.88C964.955,1168.81 965.864,1168.27 966.388,1167.26C966.668,1166.84 966.755,1166.4 966.65,1165.95C966.58,1165.46 966.441,1165.04 966.231,1164.69C966.021,1164.3 965.689,1163.9 965.235,1163.48C964.815,1163.06 964.379,1162.68 963.924,1162.33C963.47,1161.98 962.946,1161.63 962.351,1161.28C961.757,1160.9 961.216,1160.57 960.726,1160.29C960.272,1160.01 959.783,1159.73 959.258,1159.45C958.769,1159.13 958.367,1158.85 958.053,1158.61C956.655,1157.59 955.571,1156.44 954.802,1155.15C954.068,1153.85 953.684,1152.61 953.649,1151.42C953.649,1150.2 953.911,1149.01 954.435,1147.86ZM975.122,1145.22C976.944,1144.88 978.867,1144.32 980.891,1143.55C982.948,1142.74 984.483,1141.93 985.495,1141.12L985.495,1145.22L989.948,1145.22L989.948,1146.94L985.445,1146.94C985.478,1156.15 985.512,1161.64 985.546,1163.43C985.546,1165.22 985.698,1166.57 986.001,1167.48C986.339,1168.39 986.878,1168.78 987.62,1168.64C988.632,1168.31 989.02,1167.18 988.784,1165.26C988.548,1163.3 987.873,1161.66 986.76,1160.35C988.717,1159.37 990.201,1159.6 991.213,1161.06C992.158,1162.4 992.309,1164.02 991.668,1165.91C990.926,1168.17 989.324,1169.62 986.861,1170.26C986.086,1170.47 985.259,1170.58 984.382,1170.62C979.153,1170.62 976.539,1167.72 976.539,1161.91L976.539,1158.27C976.573,1156.72 976.573,1155.62 976.539,1154.98C976.539,1154.34 976.522,1153.48 976.488,1152.4C976.488,1151.32 976.455,1150.53 976.387,1150.02C976.354,1149.52 976.286,1148.93 976.185,1148.25C976.084,1147.58 975.949,1147.02 975.78,1146.58C975.611,1146.11 975.392,1145.66 975.122,1145.22ZM1034.41,1156.5C1035.9,1157.62 1037.05,1158.79 1037.87,1160.01C1038.72,1161.23 1039.04,1162.61 1038.83,1164.13C1038.6,1165.73 1037.77,1167.17 1036.34,1168.46C1034.95,1169.75 1033.25,1170.75 1031.25,1171.46C1029.25,1172.17 1027.04,1172.58 1024.63,1172.68C1022.22,1172.75 1019.93,1172.5 1017.76,1171.92C1015.62,1171.31 1013.67,1170.21 1011.91,1168.61C1010.18,1167.02 1008.97,1165.03 1008.3,1162.66L1007.79,1160.87L1007.74,1160.72C1007.46,1161.71 1007.16,1162.64 1006.82,1163.52C1006.48,1164.37 1006.06,1165.22 1005.55,1166.07C1005.04,1166.88 1004.5,1167.59 1003.92,1168.2C1003.34,1168.78 1002.66,1169.26 1001.88,1169.63C1001.13,1169.97 1000.34,1170.12 999.49,1170.09C997.555,1170.09 996.045,1169.42 994.96,1168.1C993.874,1166.75 993.382,1165.15 993.483,1163.32C993.619,1161.45 994.332,1159.84 995.621,1158.48C996.537,1157.53 997.64,1156.73 998.93,1156.09C1000.22,1155.44 1001.52,1154.87 1002.85,1154.36C1004.21,1153.85 1005.21,1153.39 1005.85,1152.99C1005.65,1152.1 1005.41,1151.27 1005.14,1150.49C1004.9,1149.71 1004.58,1148.95 1004.17,1148.2C1003.76,1147.42 1003.26,1146.88 1002.64,1146.57C1002.03,1146.23 1001.37,1146.2 1000.66,1146.47C1000.08,1146.67 999.693,1147.12 999.49,1147.79C999.286,1148.47 999.354,1149.2 999.693,1149.98C1000.07,1150.76 1000.73,1151.37 1001.68,1151.81C1001.44,1152.53 1001.03,1153.17 1000.46,1153.75C999.88,1154.33 999.218,1154.75 998.472,1155.02C996.877,1155.67 995.519,1155.62 994.4,1154.87C993.28,1154.09 992.788,1152.93 992.924,1151.41C993.093,1149.85 994.009,1148.4 995.672,1147.08C996.86,1146.1 998.336,1145.32 1000.1,1144.74C1001.87,1144.13 1003.63,1143.81 1005.39,1143.77C1006.62,1143.77 1007.68,1143.89 1008.6,1144.13C1009.55,1144.37 1010.35,1144.69 1010.99,1145.1C1011.64,1145.5 1012.21,1146.06 1012.72,1146.78C1013.23,1147.49 1013.64,1148.25 1013.95,1149.07C1014.28,1149.88 1014.61,1150.88 1014.91,1152.07L1016.64,1158.53C1018.17,1164.3 1020.55,1168 1023.77,1169.63C1025.77,1170.65 1027.52,1170.65 1029.01,1169.63C1030.13,1168.85 1030.64,1167.78 1030.54,1166.42C1030.47,1165.64 1030.08,1164.86 1029.37,1164.08C1028.69,1163.27 1027.96,1162.61 1027.18,1162.1C1026.4,1161.55 1025.43,1160.94 1024.28,1160.26C1023.16,1159.59 1022.39,1159.09 1021.99,1158.79C1020.97,1158.04 1020.12,1157.23 1019.44,1156.34C1018.76,1155.43 1018.29,1154.51 1018.02,1153.6C1017.78,1152.68 1017.69,1151.78 1017.76,1150.9C1017.83,1150.02 1018.07,1149.17 1018.48,1148.35C1019.05,1147.16 1020,1146.18 1021.33,1145.4C1022.68,1144.62 1024.12,1144.14 1025.65,1143.98C1027.18,1143.77 1028.65,1143.77 1030.08,1143.98C1031.51,1144.14 1032.71,1144.64 1033.69,1145.45C1034.68,1146.23 1035.2,1147.2 1035.27,1148.35C1035.27,1149.3 1034.91,1150.1 1034.2,1150.75C1033.49,1151.36 1032.66,1151.71 1031.71,1151.81C1030.76,1151.92 1029.79,1151.73 1028.81,1151.25C1027.82,1150.75 1027.09,1149.98 1026.62,1148.96C1027.6,1148.69 1028.2,1148.29 1028.4,1147.74C1028.64,1147.16 1028.52,1146.66 1028.04,1146.21C1027.57,1145.77 1026.96,1145.54 1026.21,1145.5C1025.3,1145.47 1024.62,1145.77 1024.18,1146.42C1023.77,1147.03 1023.63,1147.66 1023.77,1148.3L1023.87,1148.71L1024.07,1149.12C1024.14,1149.22 1024.23,1149.34 1024.33,1149.47C1024.46,1149.61 1024.57,1149.73 1024.63,1149.83C1024.74,1149.93 1024.87,1150.05 1025.04,1150.18C1025.21,1150.29 1025.33,1150.39 1025.4,1150.49L1026.77,1151.41C1027.01,1151.54 1027.16,1151.64 1027.23,1151.71C1031.13,1154.26 1033.52,1155.85 1034.41,1156.5ZM1006.46,1155.12C1005.51,1156.11 1004.73,1157.09 1004.12,1158.08C1003.51,1159.06 1003.1,1160.21 1002.9,1161.54C1002.76,1162.35 1002.76,1163 1002.9,1163.47C1003.07,1163.94 1003.34,1164.18 1003.71,1164.18C1004.97,1164.12 1006.11,1162.06 1007.12,1158.02C1006.82,1156.67 1006.6,1155.7 1006.46,1155.12Z" style="fill:rgb(255,237,246);"/>
    </g>
</svg>
