<?xml version="1.0" encoding="UTF-8" standalone="no"?>
<!DOCTYPE svg PUBLIC "-//W3C//DTD SVG 1.1//EN" "http://www.w3.org/Graphics/SVG/1.1/DTD/svg11.dtd">
<svg width="100%" height="100%" viewBox="0 0 1013 758" version="1.1" xmlns="http://www.w3.org/2000/svg" xmlns:xlink="http://www.w3.org/1999/xlink" xml:space="preserve" xmlns:serif="http://www.serif.com/" style="fill-rule:evenodd;clip-rule:evenodd;stroke-linejoin:round;stroke-miterlimit:2;">
    <g transform="matrix(1,0,0,1,-33.6953,-128.823)">
        <g id="FINALISTAS" transform="matrix(0.936702,0,0,0.936702,35.1715,123.591)">
            <g id="Back" transform="matrix(1,0,0,1,-229.896,235.665)">
                <path d="M1279.13,236.322C1276.24,235.984 1273.25,235.91 1270.2,236.069C1260.04,236.602 1249.12,239.989 1241.03,241.412C1225.65,244.117 1209.93,245.717 1195.31,251.583L1195.23,251.616C1174.41,260.26 1165.27,282.027 1162.34,302.615C1161.64,307.465 1161.13,312.359 1161.15,317.264C1161.16,319.811 1161.38,322.162 1161.77,324.335C1156.25,306.669 1150.76,288.992 1145.29,271.307L1141.49,259.004L1128.73,260.748C1113.88,262.779 1099.01,264.693 1084.12,266.486L1076.05,267.459L1072.39,274.718C1070.35,278.765 1068.3,282.812 1066.26,286.858L1068.1,268.433L1049.51,270.435C1012.32,274.437 975.036,277.671 937.707,280.094L924.401,280.958L924.166,284.596C919.256,282.266 913.918,280.956 908.34,280.408C898.789,279.468 888.426,281.065 879.735,281.432C865.152,282.048 850.232,281.425 836.049,285.511L835.945,285.541C832.916,286.46 830.172,287.709 827.691,289.232L827.794,284.911L812.006,285.154C802.327,285.303 792.648,285.397 782.968,285.434L768.063,285.492L767.848,300.396C767.51,323.783 767.171,347.17 766.832,370.557C753.663,370.528 740.495,370.395 727.328,370.157C727.115,346.688 726.906,323.219 726.702,299.751L726.574,285.064L711.891,284.706C702.2,284.469 692.509,284.177 682.821,283.829L666.807,283.255L667.097,299.276C667.378,314.745 667.662,330.213 667.948,345.682C659.943,327.324 651.969,308.952 644.022,290.569L640.301,281.963L630.941,281.436C616.462,280.62 601.989,279.681 587.526,278.621L576.196,277.79L572.203,288.426C564.829,308.068 557.423,327.699 549.977,347.315C548.635,327.572 547.306,307.829 545.99,288.084L545.131,275.197L532.272,273.98C522.682,273.073 513.096,272.114 503.516,271.103L485.264,269.177L486.794,287.466C487.545,296.434 488.298,305.402 489.054,314.369C480.548,300.405 472.064,286.426 463.6,272.436L459.79,266.14L452.488,265.23C435.724,263.141 418.978,260.899 402.255,258.508L395.584,257.555L388.896,256.567C378.763,255.069 368.637,253.518 358.52,251.914L355.217,251.391L351.91,250.859C317.683,245.353 283.551,239.245 249.529,232.59L228.32,228.44L400.965,176.97L415.393,179.792C438.538,184.32 461.758,188.475 485.042,192.22L487.292,192.582L489.539,192.938C496.421,194.03 503.31,195.085 510.203,196.103L514.753,196.776L519.291,197.424C530.668,199.051 542.06,200.576 553.464,201.997L558.432,202.616L575.761,204.682L588.178,205.992C594.695,206.68 601.216,207.333 607.74,207.95L616.488,208.777L637.621,210.542L645.329,211.107C655.168,211.828 665.013,212.467 674.863,213.022L681.231,213.38L699.263,214.259L710.157,214.65C716.748,214.887 723.34,215.085 729.933,215.246L739.922,215.49L768.146,215.781L778.286,215.742C784.871,215.716 791.456,215.653 798.04,215.551L808.78,215.386L874.501,212.697L883.553,212.109C908.947,210.461 934.307,208.261 959.609,205.538L972.26,204.176L977.667,203.513L983.159,202.852C993.284,201.632 1003.4,200.33 1013.5,198.948L1022.18,197.761C1022.18,197.761 1079.44,187.634 1089.9,185.794C1095.4,184.826 1102.83,182.522 1109.75,182.16C1115.35,181.866 1120.66,182.735 1125.23,185.166C1127.57,185.549 1235.35,220.903 1279.13,236.322ZM954.394,422.212L942.03,391.172C943.328,385.836 944.042,380.412 944.368,375.336C944.808,368.504 945.033,360.1 943.161,352.725C942.648,350.707 941.994,348.755 941.188,346.888L942.027,346.837L942.887,339.854C948.937,339.452 954.987,339.028 961.035,338.583C959.307,360.546 957.566,382.507 955.811,404.467L954.394,422.212ZM595.04,404.091L586.183,421.925L590.162,411.162C591.053,408.754 591.943,406.345 592.832,403.935C593.568,403.988 594.304,404.039 595.04,404.091ZM857.548,326.715C857.36,326.66 857.172,326.602 856.985,326.541L856.644,326.431C856.949,326.514 857.251,326.609 857.548,326.715ZM1016.39,384.798C1017.92,367.698 1019.44,350.597 1020.94,333.495C1028.56,332.762 1036.16,331.996 1043.77,331.199C1034.67,349.08 1025.55,366.947 1016.39,384.798ZM1121.77,404.786C1117.26,398.574 1105.7,388.508 1105.7,388.508C1109.25,388.051 1112.8,387.586 1116.35,387.115C1116.89,388.881 1117.43,390.646 1117.97,392.412L1121.77,404.786ZM470.699,394.094L464.212,393.255L458.199,409.407L456.082,390.208C455.212,382.321 454.345,374.434 453.482,366.546C459.21,375.735 464.949,384.918 470.699,394.094ZM351.826,356.339C351.473,356.283 311.758,387.609 311.758,387.609L308.604,366.619C307.702,360.617 306.802,354.614 305.905,348.611C321.192,351.304 336.499,353.882 351.826,356.339Z" style="fill:white;"/>
            </g>
            <g id="Front" transform="matrix(1,0,0,1,-229.896,235.665)">
                <path d="M920.988,422.522L921.451,422.412C906.072,430.115 888.339,428.77 871.769,429.428C862.692,429.788 852.103,431.344 842.25,430.428C836.35,429.88 830.679,428.547 825.428,426.148L825.352,429.274L809.763,429.509C803.246,429.607 796.729,429.68 790.204,429.727C790.177,429.756 790.161,429.772 790.161,429.773L778.319,429.788L765.986,429.835L765.939,429.787C745.403,429.738 724.866,429.436 704.337,428.883C704.185,428.957 704.07,428.992 704.07,428.992C704.05,428.992 704.005,428.993 703.947,428.988L681.808,428.176L669.475,427.743L669.432,427.7C662.619,427.422 655.807,427.117 648.997,426.784L638.932,426.292L634.916,417.051C633.514,413.827 632.114,410.602 630.715,407.377C618.794,406.709 606.878,405.958 594.968,405.124C594.49,405.09 594.012,405.057 593.534,405.023C592.734,407.189 591.934,409.355 591.133,411.521L586.882,423.018L574.662,422.065C568.105,421.553 561.55,421.017 554.997,420.456C554.958,420.491 554.935,420.512 554.935,420.512L540.239,419.153L523.491,417.644L523.436,417.563L523.421,417.561C512.009,416.446 500.605,415.257 489.209,413.995L481.425,413.134L477.26,406.502C474.778,402.55 472.299,398.598 469.822,394.644C464.875,386.749 459.936,378.849 455.005,370.945C455.705,377.328 456.407,383.712 457.111,390.095L459.373,410.603L438.91,407.954C431.646,407.014 424.385,406.045 417.128,405.048C417.089,405.086 417.067,405.108 417.067,405.11L403.909,403.208L398.871,402.503L398.841,402.475L397.397,402.266C387.531,400.84 377.672,399.362 367.82,397.834L355.737,395.959L354.216,383.827C353.104,374.965 351.997,366.102 350.895,357.238C336.292,354.893 321.708,352.439 307.141,349.879C307.968,355.408 308.797,360.937 309.627,366.465L312.996,388.886L290.69,384.83C281.033,383.074 271.384,381.272 261.745,379.426L250.572,377.286L248.781,366.052C242.613,327.37 236.549,288.671 230.586,249.957L228.32,228.391L249.727,231.574C283.738,238.227 317.859,244.333 352.074,249.837L355.38,250.368L358.682,250.892C368.795,252.495 378.918,254.046 389.048,255.543L395.733,256.53L402.401,257.484C419.119,259.873 435.858,262.115 452.616,264.203L460.416,265.175L464.485,271.9C472.191,284.637 479.914,297.364 487.654,310.079C487.021,302.57 486.391,295.062 485.763,287.553L484.128,268.016L503.625,270.074C513.201,271.084 522.783,272.043 532.369,272.95L546.105,274.249L547.023,288.016C548.234,306.184 549.456,324.353 550.689,342.52C557.569,324.379 564.415,306.225 571.234,288.062L575.499,276.701L587.601,277.588C602.059,278.648 616.526,279.587 630.999,280.402L640.998,280.966L644.972,290.158C652.23,306.948 659.511,323.728 666.817,340.496C666.563,326.762 666.312,313.029 666.063,299.295L665.752,282.181L682.858,282.795C692.542,283.143 702.229,283.435 711.916,283.671L727.601,284.053L727.737,299.742C727.938,322.874 728.144,346.007 728.354,369.14C740.839,369.36 753.325,369.487 765.812,369.519C766.146,346.473 766.48,323.427 766.813,300.381L767.043,284.461L782.964,284.399C792.64,284.362 802.316,284.268 811.99,284.119L828.855,283.859C828.855,283.859 828.77,287.414 828.77,287.413C830.885,286.265 833.172,285.3 835.644,284.55L835.798,285.586L835.806,285.583L835.661,284.545L835.759,284.517L835.908,285.552L835.762,284.516C850.025,280.408 865.027,281.017 879.691,280.398C888.426,280.029 898.842,278.433 908.441,279.378C913.621,279.887 918.598,281.043 923.229,283.037L923.427,279.984L937.64,279.061C974.954,276.639 1012.22,273.406 1049.4,269.406L1069.26,267.268C1069.26,267.268 1067.84,281.426 1067.84,281.426C1069.05,279.035 1070.26,276.643 1071.46,274.252L1075.38,266.497L1084,265.458C1098.88,263.666 1113.74,261.753 1128.59,259.723L1142.22,257.859L1146.28,271.002C1150.88,285.872 1155.49,300.736 1160.13,315.594C1160.21,311.199 1160.69,306.816 1161.31,302.469C1164.29,281.535 1173.66,259.449 1194.83,250.66L1195.04,251.696L1195.05,251.693L1194.85,250.655L1194.93,250.623L1195.13,251.659L1194.93,250.622C1209.61,244.73 1225.4,243.11 1240.85,240.392C1248.97,238.964 1259.94,235.57 1270.15,235.036C1273.25,234.873 1279.04,235.779 1279.04,235.779C1289.69,238.779 1296.93,241.684 1297.86,242.371C1304.25,247.117 1307.83,254.041 1308.97,262.045C1309.99,269.159 1308.78,277.329 1307.75,283.098C1307.37,285.258 1306.95,287.411 1306.44,289.545L1304.02,299.735C1304.02,299.735 1301.87,300.148 1301.87,300.149C1302.91,302.729 1303.63,305.498 1304.04,308.408C1305.11,316.059 1303.67,324.921 1302.56,331.105C1299.29,349.22 1291.72,368.641 1274.79,378.475L1274.79,378.475L1274.78,378.48C1258.92,387.664 1240.7,388.904 1223.07,391.913C1214.59,393.36 1203.52,396.698 1193.13,397.257C1189.64,397.445 1186.22,397.348 1182.91,396.924L1166.85,399.35C1156.15,400.967 1145.44,402.524 1134.73,404.02L1121.04,405.933L1116.98,392.715C1116.53,391.229 1116.07,389.743 1115.62,388.257C1112.36,388.689 1109.09,389.115 1105.83,389.535C1096.23,390.773 1086.62,391.961 1077,393.098C1075.04,396.999 1073.07,400.9 1071.11,404.799L1067.15,412.642L1058.43,413.617C1047.91,414.792 1037.38,415.906 1026.85,416.958L999.196,419.718C999.121,419.732 999.06,419.735 999.022,419.735L998.981,419.739L998.896,419.6C990.009,420.392 981.117,421.14 972.221,421.843L953.265,423.339L954.78,404.385C956.502,382.826 958.212,361.265 959.908,339.704C954.543,340.096 949.177,340.471 943.809,340.83L942.95,347.817L942.692,347.833C943.272,349.333 943.761,350.881 944.164,352.47C946.063,359.95 945.847,368.473 945.401,375.403C945.071,380.535 944.348,386.021 943.036,391.417C939.944,404.129 933.568,416.318 921.464,422.406L921.462,422.406L920.988,422.522C920.988,422.522 920.987,422.516 920.986,422.505C920.994,422.512 920.999,422.516 920.999,422.516L920.981,422.442C920.968,422.283 920.935,421.912 920.882,421.539C920.848,421.556 920.814,421.573 920.779,421.59L920.981,422.442C920.984,422.47 920.985,422.492 920.986,422.505L920.983,422.502L920.769,421.596C920.632,421.663 920.496,421.729 920.36,421.795C920.589,422.145 920.908,422.436 920.983,422.502L920.988,422.522ZM1017.9,379.598C1025.95,363.886 1033.98,348.162 1041.99,332.426C1035.29,333.123 1028.6,333.795 1021.9,334.442C1020.57,349.495 1019.24,364.547 1017.9,379.598ZM246.614,247.489C252.572,286.175 258.632,324.845 264.795,363.499C274.385,365.336 283.984,367.128 293.591,368.875C291.64,355.894 289.701,342.911 287.772,329.927C310.298,334.055 332.87,337.934 355.483,341.55C354.37,332.795 353.261,324.04 352.156,315.283C329.348,311.618 306.582,307.686 283.862,303.502C282.772,296.103 281.685,288.704 280.602,281.305C304.669,285.754 328.788,289.923 352.955,293.791C351.798,284.477 350.646,275.163 349.499,265.847C315.103,260.314 280.803,254.177 246.614,247.489ZM819.785,376.811C819.736,378.588 819.688,380.365 819.639,382.141C819.4,390.879 819.266,402.319 826.993,408.269C839.179,417.777 857.094,413.781 871.126,413.224C885.455,412.655 900.89,414.574 914.189,407.913C926.2,401.872 928.445,386.368 929.218,374.361C929.798,365.352 930.417,352.86 922.475,346.504C911.004,337.708 894.384,341.92 881.268,341.958C871.739,342.026 861.604,343.997 852.305,340.983C849.096,340.108 848.398,336.608 848.503,333.709C848.973,320.742 865.875,323.975 874.223,323.641C881.675,323.342 892.637,319.569 899.542,324.58C902.293,326.621 901.799,331 901.766,333.961C910.68,333.506 919.592,333.005 928.501,332.458C928.72,330.674 928.861,328.882 928.973,327.089C929.488,318.864 929.865,307.624 922.864,301.682C911.483,291.927 893.786,296.034 880.375,296.6C866.989,297.165 853.27,296.349 840.251,300.099C825.086,304.702 822.085,322.345 821.708,336.094C821.356,348.938 823.286,364.608 838.32,367.492C841.877,368.175 845.507,368.362 849.122,368.388C851.537,368.426 853.953,368.461 856.369,368.492C861.199,368.61 866.03,368.714 870.861,368.804C878.024,368.859 885.189,368.883 892.353,368.876C898.428,368.703 903.046,369.927 902.661,376.874C902.24,384.465 898.35,386.301 891.287,386.997C885.189,387.598 879.06,387.772 872.94,388.018C865.558,388.314 855.071,391.704 848.446,386.569C845.457,384.279 846.037,379.423 846.155,376.173C837.366,376.432 828.575,376.645 819.785,376.811ZM649.788,410.587C659.989,411.086 670.194,411.522 680.4,411.897C663.485,373.525 646.726,335.085 630.087,296.593C615.522,295.772 600.964,294.828 586.416,293.761C572.692,330.318 558.857,366.833 544.866,403.287C555.213,404.219 565.565,405.09 575.923,405.898C578.133,399.92 580.339,393.941 582.542,387.961C602.214,389.443 621.904,390.7 641.606,391.726C644.329,398.015 647.057,404.302 649.788,410.587ZM631.232,366.938C617.813,366.185 604.399,365.325 590.993,364.361C596.195,350.34 601.377,336.312 606.543,322.277C608.369,322.397 610.196,322.515 612.022,322.631C618.407,337.408 624.81,352.178 631.232,366.938ZM682.276,299.001C682.96,336.681 683.661,374.36 684.38,412.04C714.628,413.101 744.898,413.615 775.165,413.575C775.28,404.298 775.395,395.02 775.51,385.742C754.432,385.77 733.353,385.53 712.281,385.025C712.021,356.644 711.768,328.263 711.521,299.883C701.771,299.645 692.023,299.351 682.276,299.001ZM1170.6,346.254C1170.34,348.06 1170.08,349.867 1169.82,351.673C1168.71,359.38 1166.6,371.866 1174.45,377.107C1187.12,385.719 1207.08,378.191 1220.34,375.928C1236.09,373.24 1252.49,372.648 1266.66,364.446C1279.4,357.044 1284.14,341.87 1286.6,328.227C1288.04,320.24 1290.82,306.536 1282.63,300.911C1270.51,293.04 1252.02,300.467 1239.4,302.207C1229.53,303.608 1219.01,307.197 1208.94,305.354C1205.56,304.911 1205.37,301.216 1205.78,298.526C1207.76,285.383 1224.36,286.33 1234.06,284.649C1241.16,283.419 1253.42,277.522 1260.76,281.967C1263.58,283.72 1262.37,288.579 1262.05,291.16C1271.59,289.413 1281.13,287.623 1290.67,285.789C1291.1,283.963 1291.46,282.12 1291.79,280.272C1293.07,272.989 1295.36,260.694 1288.17,255.38C1276.25,246.455 1256.3,254.14 1243.66,256.364C1229.31,258.887 1214.6,260.2 1200.97,265.672C1185.35,272.157 1179.57,289.248 1177.37,304.756C1176.78,308.875 1176.31,313.03 1176.33,317.197C1176.4,332.774 1188.97,335.288 1202.39,333.574C1204.94,333.27 1207.48,332.963 1210.02,332.652C1215.11,332.085 1220.19,331.505 1225.28,330.911C1232.86,329.945 1240.44,328.95 1248.02,327.925C1253.96,326.966 1259.3,327.18 1258.03,334.571C1256.67,342.462 1252.15,344.797 1244.77,346.463C1238.3,347.923 1231.76,348.978 1225.23,350.1C1218.25,351.299 1206.49,356.746 1199.55,352.096C1196.51,350.089 1197.93,344.7 1198.36,341.884C1189.12,343.384 1179.86,344.841 1170.6,346.254ZM400.107,273.537C404.216,311.718 408.398,349.891 412.652,388.056C422.092,389.376 431.539,390.649 440.992,391.872C437.887,363.713 434.819,335.549 431.788,307.381C432.817,307.517 433.847,307.652 434.876,307.787C453.479,337.881 472.177,367.916 490.993,397.877C506.833,399.631 522.689,401.243 538.558,402.711C535.939,364.842 533.367,326.97 530.842,289.094C521.198,288.182 511.557,287.217 501.923,286.201C504.316,314.806 506.74,343.41 509.194,372.01C508.242,371.911 507.289,371.812 506.336,371.713C487.653,341.306 469.085,310.829 450.611,280.295C433.756,278.195 416.92,275.94 400.107,273.537ZM938.691,295.244C938.049,305.177 937.405,315.109 936.758,325.042C950.366,324.164 963.966,323.178 977.558,322.086C975.375,349.951 973.171,377.815 970.945,405.676C980.468,404.925 989.987,404.12 999.501,403.264C1002,375.366 1004.48,347.465 1006.93,319.562C1020.67,318.305 1034.4,316.941 1048.12,315.472C1049.12,305.492 1050.13,295.51 1051.13,285.529C1013.73,289.554 976.233,292.807 938.691,295.244ZM356.143,266.908C360.783,305.218 365.504,343.519 370.306,381.809C380.102,383.329 389.906,384.798 399.717,386.216C395.296,348.015 390.949,309.804 386.677,271.585C376.491,270.08 366.312,268.521 356.143,266.908ZM783.027,300.616C782.484,338.264 781.938,375.912 781.391,413.56C790.767,413.524 800.143,413.435 809.518,413.294C810.433,375.641 811.34,337.987 812.24,300.334C802.503,300.484 792.765,300.578 783.027,300.616ZM1132.49,387.96C1143.14,386.472 1153.79,384.923 1164.43,383.316C1153.07,347.518 1141.88,311.67 1130.79,275.79C1115.86,277.831 1100.9,279.756 1085.94,281.559C1065.84,321.382 1045.62,361.142 1025.23,400.821C1035.7,399.776 1046.17,398.669 1056.63,397.501C1059.9,391.004 1063.17,384.505 1066.44,378.004C1086.68,375.674 1106.91,373.118 1127.1,370.345C1128.89,376.218 1130.69,382.089 1132.49,387.96ZM1120.41,347.14C1106.64,348.99 1092.87,350.74 1079.08,352.385C1086.78,337.122 1094.45,321.848 1102.11,306.565C1103.99,306.327 1105.86,306.087 1107.74,305.845C1111.94,319.615 1116.16,333.381 1120.41,347.14Z" style="fill:white;"/>
            </g>
        </g>
        <g id="TAROUCA" transform="matrix(0.969597,0,0,0.969597,-192.275,84.3123)">
            <path d="M326.404,684.279C362.846,689.459 398.956,697.438 435.42,702.755C435.714,712.01 436.012,721.265 436.311,730.52C422.996,728.584 409.696,726.533 396.416,724.371C396.968,741.029 397.531,757.688 398.102,774.346C398.416,783.486 399.497,792.93 398.277,802.031C388.9,800.782 379.528,799.488 370.163,798.155C370.896,788.748 369.74,778.943 369.411,769.521C368.828,752.853 368.256,736.184 367.694,719.514C353.939,717.103 340.24,714.199 326.435,712.11C326.306,702.834 326.293,693.556 326.404,684.279ZM526.936,816.081C524.866,811.096 523.087,805.996 520.987,801.023C501.565,799.322 482.162,797.414 462.779,795.32C460.124,800.042 456.97,804.466 453.821,808.866C443.666,807.722 433.517,806.519 423.375,805.26C431.92,793.906 436.828,780.724 442.478,767.775C451.25,747.672 459.938,727.534 468.484,707.334C482.508,709.173 496.55,710.883 510.606,712.462C525.983,747.917 541.608,783.281 557.496,818.499C547.305,817.751 537.118,816.945 526.936,816.081ZM511.317,778.37C505.127,764.136 498.983,749.882 492.882,735.609C491.106,735.395 489.329,735.179 487.553,734.961C482.3,747.851 477.001,760.723 471.653,773.574C484.86,775.287 498.082,776.886 511.317,778.37ZM561.474,818.788C563.903,785.044 561.911,751.362 560.92,717.541C582.523,719.475 604.154,721.094 625.805,722.392C637.856,723.114 651.588,720.481 661.888,728.505C671.081,735.703 671.122,749.38 671.407,759.904C671.625,767.967 672.933,779.894 666.079,786.002C663.307,788.612 659.624,789.513 655.954,790.011C670.214,792.678 671.484,803.806 670.733,816.524C670.648,819.164 670.565,821.804 670.481,824.444C661.649,824.163 652.818,823.839 643.989,823.472L644.174,819.01C644.366,814.391 645.78,807.959 642.351,804.052C639.09,800.048 632.008,801.286 627.615,801.075C615.037,800.47 602.464,799.777 589.896,798.998C589.633,806.205 588.779,813.39 588.333,820.588C579.377,820.033 570.424,819.433 561.474,818.788ZM589.323,773.462C601.891,774.428 614.467,775.288 627.049,776.039C631.728,776.206 638.168,778.414 642.273,774.972C645.543,772.603 644.943,766.956 644.848,763.538C644.738,759.571 644.677,753.808 640.7,751.533C636.345,749.04 631.071,749.934 626.303,749.585C613.712,748.831 601.127,747.969 588.552,746.999C588.808,755.82 589.065,764.641 589.323,773.462ZM738.519,724.578C748.736,724.658 758.965,724.599 769.164,725.301C776.601,725.814 784.44,726.647 790.174,731.896C802.292,742.988 799.636,765.372 799.979,779.8C800.272,792.12 803.768,812.078 792.02,820.998C786.547,825.153 779.414,825.902 772.779,826.402C761.993,827.214 751.164,827.119 740.356,827.052C729.389,826.984 718.401,826.947 707.467,825.993C700.82,825.413 693.677,824.582 688.241,820.346C676.802,811.381 680.127,790.454 679.797,778.22C679.425,764.437 675.606,742.018 687.199,731.087C692.765,725.839 700.617,725.208 707.894,724.82C718.094,724.275 728.311,724.498 738.519,724.578ZM739.233,752.765C730.42,752.696 712.563,747.568 708.02,759.091C705.091,766.383 706.334,774.912 706.534,782.526C706.684,788.252 705.541,797.304 710.798,801.502C718.763,807.752 731.486,804.868 740.581,804.924C749.64,804.98 761.831,807.758 769.899,801.873C775.2,797.789 773.589,788.779 773.453,783.209C773.257,775.203 774.573,764.734 769.676,757.649C763.121,748.527 748.263,752.836 739.233,752.765ZM808.688,725.628C817.569,725.409 826.45,725.135 835.329,724.806C835.712,741.402 836.093,757.998 836.472,774.595C836.738,781.514 836.377,788.762 837.874,795.575C840.64,806.955 859.764,803.041 867.425,802.728C875.196,802.411 888.092,804.601 894.053,797.665C897.484,793.777 896.76,787.351 896.845,782.597C896.899,778.907 896.952,775.216 896.873,771.526C896.52,754.923 896.163,738.319 895.803,721.716C904.707,721.137 913.608,720.502 922.504,719.813C922.855,736.421 923.202,753.028 923.544,769.635C923.59,780.23 923.811,790.842 923.063,801.419C922.214,811.056 915.294,818.577 906.034,820.991C893.864,824.038 881.227,824.312 868.76,824.822C853.303,825.455 830.21,830.322 817.515,817.865C811.614,812.238 811.201,803.461 810.609,795.869C810.118,789.066 810.075,782.227 809.863,775.412C809.473,758.817 809.081,742.223 808.688,725.628ZM1019.33,776.698C1028.34,775.612 1037.35,774.473 1046.35,773.279C1046.48,776.616 1046.73,779.948 1046.78,783.288C1046.96,793.662 1045.62,805.327 1034.92,809.962C1023.6,814.751 1011.03,815.295 998.954,816.37C982.056,817.874 962.087,823.169 945.806,815.576C939.416,812.629 936.301,806.279 935.102,799.627C933.729,791.133 933.966,782.379 933.792,773.802C933.53,760.898 931.724,747.258 935.494,734.644C941.21,715.25 963.442,715.196 979.925,713.111C985.134,712.452 990.352,711.86 995.57,711.28C1007.74,709.928 1021.89,705.885 1033.54,711.833C1043.69,716.856 1044.13,730.914 1044.31,740.646C1044.34,742.427 1044.37,744.207 1044.4,745.988C1035.44,747.174 1026.48,748.307 1017.51,749.385C1017.34,746.337 1017.79,741.731 1015.2,739.435C1013.18,737.568 1009.87,738.018 1007.4,738.014C1001.06,738.002 994.736,738.701 988.435,739.377C980.788,740.197 970.068,738.643 964.212,745.092C958.401,751.74 960.348,763.454 960.502,771.297C960.574,774.943 960.629,778.591 960.85,782.231C961.572,794.119 967.204,797.162 978.38,796.584C982.146,796.389 985.903,796.061 989.659,795.738C996.342,795.163 1003.04,794.785 1009.6,793.277C1012.88,792.523 1016.53,791.486 1018.14,788.223C1019.87,784.714 1019.37,780.462 1019.33,776.698ZM1153.13,796.894C1149.88,791.985 1147.66,786.276 1145.13,780.966C1125.57,784.413 1105.95,787.615 1086.3,790.564C1084.24,795.937 1081.94,801.199 1080.01,806.623C1069.84,807.84 1059.67,808.999 1049.49,810.101C1063.96,773.316 1079.09,736.789 1093.32,699.898C1107.42,697.708 1121.5,695.386 1135.56,692.937C1151.38,726.015 1168.67,758.467 1184.14,791.687C1173.83,793.64 1163.52,795.381 1153.13,796.894ZM1135.29,759.391C1129.27,746.766 1123.31,734.118 1117.38,721.448C1115.6,721.743 1113.82,722.036 1112.04,722.327C1106.58,736.868 1101.07,751.392 1095.51,765.898C1108.79,763.844 1122.05,761.674 1135.29,759.391Z" style="fill:white;"/>
        </g>
        <g id="Symbol" transform="matrix(0.969597,0,0,0.969597,15.7013,52.0543)">
            <g transform="matrix(18.5117,0,0,17.8096,317.86,98.4324)">
                <path d="M20.95,17.422L20.95,10.525L12,15.4L1.036,9L12,2.625L23.043,9L23.043,17.422L20.95,17.422Z" style="fill:white;"/>
                <g transform="matrix(0.0557139,-0,-0,0.05791,-16.1683,-1.08124)">
                </g>
            </g>
            <g transform="matrix(18.5117,0,0,17.8096,317.86,98.4324)">
                <path d="M12,21.35L4.65,17.4L4.65,12.775L12,16.775L19.35,12.775L19.35,17.4L12,21.35Z" style="fill:white;"/>
                <g transform="matrix(0.0557139,-0,-0,0.05791,-16.1683,-1.08124)">
                </g>
            </g>
        </g>
        <g id="_25" serif:id="25" transform="matrix(1.10167,0,0,1.10167,-173.899,143.382)">
            <path d="M864.208,193.979L846.812,194.936L846.812,189.366C846.812,171.604 845.341,150.051 865.36,143.308C870.633,141.532 876.145,140.47 881.609,139.477C891.482,137.682 910.439,130.615 918.306,140.078C926.759,149.99 924.822,168.381 924.822,180.263C924.822,191.651 925.089,203.854 921.604,214.879C918.318,224.995 910.021,229.627 899.792,230.444C891.962,231.254 884.123,232.006 876.306,232.932C873.922,233.215 869.185,232.997 867.251,234.856C864.09,237.469 864.259,242.264 864.208,245.956L864.208,247.361L926.052,252.109L926.052,287.46L847.672,275.508C847.474,270.626 847.413,265.752 847.413,260.866C847.413,248.645 846.773,235.909 848.708,223.782C850.184,214.082 853.963,206.985 863.658,203.829C872.513,201.133 882.168,200.009 891.219,198.059C901.801,195.897 904.273,193.175 904.273,182.513C904.273,179.04 905.032,171.62 900.932,169.633C897.022,167.299 889.727,169.323 885.634,169.769C880.192,170.362 870.391,169.984 866.233,174.304C862.925,177.194 864.239,185.875 864.208,189.363L864.208,193.979ZM939.879,130.791L1036.96,113.531L1036.96,154.418L971.651,161.408C968.331,161.763 964.445,162.25 961.172,161.287L961.172,179.219C961.172,183.368 961.182,187.51 960.926,191.652C963.005,187.805 965.025,184.035 969.005,181.921C976.187,177.83 986.228,177.37 994.242,176.779C1000.8,176.295 1007.47,176.004 1014.02,176.799C1042.93,180.308 1041.51,214.004 1041.51,236.436C1041.51,240.872 1041.46,245.309 1041.33,249.743C1040.9,263.699 1041.72,288.458 1027.7,297.617C1017.2,304.289 1003.63,301.447 992.114,299.645C977.902,297.422 961.992,295.928 949.421,288.356C936.218,280.139 936.866,259.813 936.866,246.544C936.866,244.493 936.891,242.442 936.982,240.393L959.944,241.553C960.008,245.209 959.588,250.202 961.418,253.577C964.905,260.412 979.077,259.784 985.008,260.281C991.469,260.822 1004.13,264.264 1009.85,259.631C1014.97,255.233 1013.31,242.406 1013.31,237.107C1013.31,231.468 1014.5,219.851 1007.5,217.321C999.208,214.021 988.175,214.662 979.433,214.688C970.706,214.714 961.172,214.671 961.172,225.442L961.172,227.433L939.879,226.959L939.879,130.791Z" style="fill:white;"/>
        </g>
        <g id="_24" serif:id="24" transform="matrix(1.11643,0,0,1.11643,-383.81,237.587)">
            <path d="M472.223,99.951L445.17,98.493L445.17,90.139C445.17,85.903 445.2,81.668 445.297,77.433C445.605,63.99 444.466,39.718 459.752,33.197C465.073,30.927 471.182,30.967 476.848,31.365C483.36,31.822 489.829,32.911 496.245,34.078C509.638,36.512 530.756,36.702 539.006,49.558C546.986,61.745 545.673,79.39 545.673,93.206C545.673,104.956 545.938,117.494 542.411,128.88C538.886,139.955 529.661,145.093 518.626,146.693C508.811,148.346 498.987,149.983 489.215,151.871C485.733,152.544 479.379,152.743 476.627,155.478C472.225,159.297 472.302,165.717 472.223,171.062L472.223,172.984L546.904,167.082L546.904,203.337L446.588,218.928C446.26,211.67 446.163,204.428 446.163,197.163C446.163,178.901 445.134,159.734 448.284,141.64C450.672,127.271 456.693,117.004 471.417,113.381C483.364,110.676 496.241,110.131 508.39,108.569C510.343,108.339 512.299,108.102 514.236,107.761C523.433,106.146 523.766,100.681 523.766,92.279C523.766,87.695 524.432,80.046 519.947,76.951C515.436,73.333 506.744,73.765 501.422,73.188C494.614,72.451 481.215,68.925 475.164,73.62C470.397,76.58 472.262,89.639 472.223,93.636L472.223,99.951ZM637.295,136.705L637.295,165.481L626.295,166.509L626.295,190.998L609.092,193.672L609.092,168.117L555.741,173.103L555.741,113.77C568.98,93.647 582.49,73.701 596.296,53.961L626.295,59.294L626.295,136.909L637.295,136.705ZM609.092,137.229L609.092,88.154L605.293,87.773C595.045,102.431 584.95,117.197 575,132.059L575,137.863L609.092,137.229Z" style="fill:white;"/>
        </g>
    </g>
</svg>
