<?xml version="1.0" encoding="UTF-8" standalone="no"?>
<!DOCTYPE svg PUBLIC "-//W3C//DTD SVG 1.1//EN" "http://www.w3.org/Graphics/SVG/1.1/DTD/svg11.dtd">
<svg width="100%" height="100%" viewBox="0 0 1080 1080" version="1.1" xmlns="http://www.w3.org/2000/svg" xmlns:xlink="http://www.w3.org/1999/xlink" xml:space="preserve" xmlns:serif="http://www.serif.com/" style="fill-rule:evenodd;clip-rule:evenodd;stroke-linejoin:round;stroke-miterlimit:2;">
    <g transform="matrix(1.29648,0,0,1.29648,-160.101,-149.637)">
        <path d="M249.647,830.44C236.245,817.402 223.716,803.469 212.158,788.74L383.421,788.74C387.592,803.307 391.349,817.383 394.492,830.44L249.647,830.44ZM172.896,728.74C167.92,719.486 163.284,710.023 159.005,700.368L355.269,700.368C358.498,709.641 361.72,719.145 364.882,728.74L172.896,728.74ZM147.086,670.368C145.542,665.99 144.068,661.578 142.668,657.135L185.136,657.135C184.668,662.327 184.491,666.884 184.678,670.368L147.086,670.368ZM138.25,642.135C128.627,607.027 123.489,570.073 123.489,531.929C123.489,302.05 310.121,115.417 540,115.417C769.879,115.417 956.511,302.05 956.511,531.929C956.511,570.073 951.373,607.027 941.75,642.135L563.32,642.135C577.868,548.311 598.748,464.145 626.653,417.47L641.686,392.325L644.82,409.085C647.701,424.494 648.75,422.783 657.919,424.767C664.01,426.086 668.722,427.697 668.722,427.697C668.722,427.697 664.273,431.225 659.421,431.225C650.089,431.225 648.922,435.188 653.862,442.984C655.819,446.073 659.87,446.934 665.275,445.41L673.655,443.047L665.544,449.588C654.57,458.437 658.261,468.933 671.377,466.177C679.238,464.525 679.737,464.835 674.537,468.142C664.366,474.61 666.723,482.785 678.066,480.384C686.153,478.671 686.741,478.983 681.594,482.256C674.622,486.69 674.157,488.958 678.733,496.191C681.39,500.389 682.891,500.466 687.501,496.641C690.888,493.829 693.449,495.298 693.449,495.298C693.449,495.298 691.474,500.511 689.534,501.71C683.581,505.389 685.399,509.094 702.466,528.078C715.662,542.754 719.524,545.322 721.932,541.019C726.95,532.051 715.319,449.495 704.867,419.893C703.415,415.782 707.522,417.951 716.36,425.962C746.373,453.166 744.707,452.441 751.209,441.145L756.968,431.139L754.995,443.112C753.848,450.077 754.78,457.203 757.224,460.147C760.795,464.451 762.415,463.978 768.026,456.996L774.627,448.782L772.58,459.368C771.013,467.472 772.147,470.958 777.418,474.237C783.459,477.996 784.731,477.348 787.804,468.944C791.222,459.594 791.312,459.681 791.584,472.6C791.903,487.747 798.981,490.443 805.482,477.893C809.306,470.509 809.51,470.759 808.391,481.458C807.301,491.885 808.669,493.791 822.998,501.799C831.693,506.659 839.469,509.974 840.277,509.165C842.843,506.599 824.758,458.402 814.948,441.662C795.428,408.353 765.833,382.731 729.403,367.6L708.941,359.102L727.22,358.953C743.304,358.822 745.688,357.851 747.062,350.865L748.624,342.925L751.248,350.865C752.69,355.231 756.751,358.804 760.272,358.804C764.094,358.804 767.301,355.606 768.233,350.865L769.795,342.925L772.419,350.865C774.164,356.144 777.861,358.804 783.453,358.804C789.751,358.804 791.922,356.811 792.101,350.865L792.341,342.925L796.17,350.865C801.644,362.215 812.246,361.159 813.884,349.101L815.202,339.397L819.474,349.496C822.885,357.561 825.334,359.169 831.623,357.483C835.955,356.322 847.288,355.359 856.807,355.324C873.069,355.278 873.776,354.903 868.518,349.101C859.407,339.048 825.219,319.694 801.123,310.948C763.191,297.179 734.022,296.41 687.683,307.958C677.829,310.414 677.509,310.179 682.478,304.123C686.511,299.206 686.721,297.318 683.36,296.186C675.997,293.708 678.431,288.258 686.5,289.156C695.832,290.195 699.383,282.39 690.612,280.117C687.109,279.208 689.799,278.23 696.592,277.944C708.241,277.452 708.553,277.128 702.093,272.242C695.6,267.333 695.82,267.061 706.295,267.061C716.744,267.061 726.908,260.228 717.089,259.805C714.549,259.695 717.564,256.512 723.522,255.394C729.915,254.195 741.397,245.228 749.739,237.95L764.905,224.718L752.661,224.718C736.324,224.718 703.323,233.526 685.397,242.672C677.418,246.742 663.16,257.303 653.713,266.139L636.537,282.205L619.658,264.601C592.225,235.988 528.884,210.604 484.92,210.604L474.08,210.604L482.041,221.372C488.446,230.034 491.743,231.713 498.908,229.96C507.107,227.954 507.298,228.164 501.319,232.61C495.345,237.053 495.287,237.821 500.587,242.221C504.95,245.842 507.339,246.011 510.433,242.917C517.496,235.853 521.571,238.486 514.93,245.823C509.631,251.679 509.356,253.721 513.236,258.396C517.43,263.45 518.161,263.456 520.956,258.463C522.653,255.429 526.382,252.947 529.241,252.947C533.749,252.947 533.716,254.054 528.987,261.27C524.126,268.689 524.112,270.075 528.863,274.018C533.218,277.632 534.594,277.4 536.378,272.752C537.579,269.622 540.035,267.061 541.837,267.061C543.638,267.061 543.243,270.554 540.958,274.823C537.207,281.832 538.476,284.046 554.066,297.686L571.328,312.788L554.194,312.862C516.557,313.021 473.518,331.531 438.095,360.73C422.388,373.678 382.68,417.156 384.709,419.186C387.004,421.481 422.101,408.729 420.522,406.174C419.499,404.519 420.276,402.168 422.248,400.949C424.221,399.73 425.835,400.414 425.835,402.469C425.835,404.525 428.216,406.206 431.127,406.206C434.068,406.206 436.42,403.069 436.42,399.149C436.42,395.267 438.008,392.092 439.949,392.092C441.89,392.092 443.477,394.474 443.477,397.385C443.477,403.281 446.521,403.997 453.301,399.695C455.878,398.061 456.894,393.898 455.659,390.046C453.563,383.508 453.673,383.498 458.802,389.756C467.042,399.812 477.199,395.955 476.055,383.206L475.111,372.685L480.511,382.261C486.68,393.198 496.406,392.092 496.406,380.455C496.406,373.529 496.675,373.469 501.027,379.42C505.03,384.894 507.506,385.222 519.552,381.878C539.876,376.235 531.907,378.327 516.434,398.503C494.211,427.481 462.819,497.97 475.448,490.536C494.337,479.415 502.529,470.169 502.646,459.834C502.763,449.43 503.02,449.218 507.056,456.207C513.875,468.015 520.135,462.342 520.435,444.081L520.706,427.614L524.846,441.23C528.963,454.774 529.021,454.809 535.493,447.642C540.401,442.208 541.41,437.56 539.597,428.732L537.194,417.027L543.388,425.848C546.794,430.7 549.947,435.17 550.393,435.782C550.839,436.393 558.871,432.121 568.241,426.289C577.611,420.457 585.761,416.169 586.353,416.76C586.944,417.351 578.875,429.743 570.921,445.66C544.936,497.653 525.491,571.236 510.159,642.135L367.928,642.135C352.974,611.504 341.149,588.756 337.404,583.229C328.305,569.8 322.911,560.76 325.419,563.14C328.801,566.348 331.206,566.447 334.731,563.523C338.501,560.394 338.979,560.893 337.042,565.938C335.065,571.091 335.995,571.933 341.95,570.376C347.368,568.959 349.841,570.432 351.367,575.984C352.941,581.716 354.16,582.389 356.473,578.806C358.905,575.038 359.955,575.258 361.741,579.912C362.968,583.109 365.57,584.736 367.525,583.528C369.479,582.32 371.078,583.199 371.078,585.48C371.078,587.863 374.019,588.86 377.966,587.828C381.754,586.837 385.327,587.424 385.905,589.132C386.484,590.84 394.87,593.32 404.541,594.643L422.126,597.048L416.578,588.516C413.526,583.824 398.821,570.06 383.901,557.931L356.771,535.877L374.888,535.877C390.607,535.877 392.72,535.061 390.854,529.702C388.806,523.821 388.933,523.821 393.512,529.702C396.157,533.098 400.13,535.877 402.342,535.877C404.554,535.877 406.491,533.098 406.643,529.702C406.809,526.013 407.638,525.303 408.701,527.938C409.68,530.364 413.618,532.349 417.452,532.349C422.004,532.349 423.56,530.818 421.933,527.938C419.941,524.409 420.393,524.409 424.195,527.938C430.569,533.854 434.593,533.501 434.593,527.026C434.593,522.745 435.861,522.495 441.071,525.749C445.536,528.538 450.716,528.738 457.747,526.395L467.945,522.995L451.234,513.202C417.796,493.605 381.703,488.55 347.889,498.727L330.635,503.919L340.84,495.782C346.747,491.072 349.985,485.93 348.528,483.573C346.891,480.924 347.916,480.231 351.458,481.591C354.662,482.82 357.795,481.359 359.068,478.042C360.258,474.941 362.474,473.17 363.991,474.108C365.509,475.046 368.712,473.449 371.11,470.56C373.509,467.67 374.085,465.205 372.392,465.082C370.699,464.959 373.068,463.355 377.656,461.518C384.337,458.843 385.175,457.186 381.865,453.198C378.529,449.178 378.962,448.524 384.109,449.803C390.23,451.324 415.782,431.205 412.235,427.657C408.752,424.175 364.775,434.394 347.472,442.706C337.159,447.66 321.691,459.674 312.066,470.204C298.34,485.223 294.137,488.008 290.719,484.349C288.026,481.466 287.746,479 289.956,477.634C291.877,476.446 293.45,473.887 293.45,471.946C293.45,470.006 291.465,469.61 289.039,471.067C286.042,472.868 286.18,471.804 289.471,467.747C293.258,463.078 293.331,461.777 289.806,461.777C286.775,461.777 287.39,459.466 291.685,454.72C296.569,449.323 296.906,447.651 293.114,447.609C289.834,447.573 289.467,446.677 292.031,444.962C296.87,441.725 301.739,412.377 297.438,412.377C292.774,412.377 276.467,434.861 268.664,452.051C264.915,460.311 261.812,473.421 261.77,481.184L261.692,495.298L234.346,495.334C205.741,495.358 181.225,503.696 155.136,522.273L144.207,530.055L152.391,533.083C158.016,535.163 161.472,534.696 163.443,531.589C165.682,528.063 166.324,528.039 166.367,531.48C166.396,533.905 168.67,535.89 171.419,535.89C174.169,535.89 177.219,533.905 178.198,531.48C179.261,528.845 180.09,529.555 180.256,533.244C180.41,536.64 182.044,539.419 183.888,539.419C185.732,539.419 188.86,536.64 190.838,533.244C194.12,527.609 194.443,527.588 194.542,533.007C194.618,537.258 197.91,539.048 206.117,539.306C212.424,539.503 221.814,539.8 226.983,539.966L236.382,540.27L221.604,558.413C213.476,568.391 203.256,584.854 198.893,594.997C194.196,605.916 189.676,625.041 187.019,642.135L138.25,642.135ZM937.332,657.135C935.932,661.578 934.458,665.99 932.914,670.368L559.169,670.368C559.786,665.941 560.416,661.529 561.059,657.135L937.332,657.135ZM920.995,700.368C916.716,710.023 912.08,719.486 907.104,728.74L551.883,728.74C552.937,719.262 554.049,709.796 555.221,700.368L920.995,700.368ZM867.842,788.74C856.284,803.469 843.755,817.402 830.353,830.44L542.734,830.44C543.69,816.691 544.771,802.763 545.978,788.74L867.842,788.74ZM434.406,788.74L474.747,788.74C471.344,803.297 468.231,817.505 465.765,830.44L450.465,830.44C446.08,817.99 440.591,803.833 434.406,788.74ZM196.021,670.368C197.323,667.404 198.178,664.264 198.178,662.039C198.178,657.937 199.725,656.404 202.262,657.972C204.032,659.066 204.937,658.818 205.014,657.135L258.604,657.135C259.507,659.896 260.391,662.279 261.212,664.112L264.012,670.368L196.021,670.368ZM270.17,670.368L271.277,666.45C272.312,662.787 272.884,659.721 272.99,657.135L339.527,657.135C341.166,661.425 342.827,665.842 344.502,670.368L270.17,670.368ZM395.583,700.368L496.851,700.368C494.633,709.088 492.166,718.666 489.589,728.74L408.518,728.74C404.241,719.219 399.902,709.709 395.583,700.368ZM506.965,657.135C506.354,660.05 505.75,662.958 505.152,665.856C504.865,667.246 504.539,668.753 504.179,670.368L381.521,670.368C379.38,665.861 377.267,661.443 375.195,657.135L506.965,657.135ZM333.679,642.135L277.166,642.135C277.399,639.693 276.677,636.802 274.647,634.605C271.703,631.419 271.676,630.781 274.552,632.391C281.238,636.133 283.472,623.574 277.328,616.785C272.032,610.932 272.106,610.609 278.374,612.248C284.029,613.727 286.181,610.521 291.642,592.483C295.228,580.641 299.384,572.194 300.879,573.712C302.374,575.229 309.835,589.174 317.459,604.7C322.112,614.174 327.663,627.035 333.679,642.135ZM254.413,642.135L213.477,642.135C213.051,641.11 212.359,639.975 211.379,638.767C207.715,634.253 207.99,633.743 213.061,635.643C221.141,638.669 224.66,632.27 218.798,625.208C214.68,620.246 215.072,619.865 222.023,622.072C227.923,623.944 229.935,623.176 229.935,619.052C229.935,616.01 231.155,613.522 232.646,613.522C234.137,613.522 237.811,609.478 240.809,604.536C246.161,595.717 246.339,596.048 250.449,622.488C251.416,628.706 252.83,635.614 254.413,642.135Z" style="fill:white;"/>
    </g>
</svg>
